<?xml version="1.0" encoding="utf-8"?>
<!-- Generator: Adobe Illustrator 16.0.0, SVG Export Plug-In . SVG Version: 6.00 Build 0)  -->
<!DOCTYPE svg PUBLIC "-//W3C//DTD SVG 1.1//EN" "http://www.w3.org/Graphics/SVG/1.1/DTD/svg11.dtd">
<svg version="1.1" id="Layer_1" xmlns="http://www.w3.org/2000/svg" xmlns:xlink="http://www.w3.org/1999/xlink" x="0px" y="0px"
	 width="329.213px" height="372.378px" viewBox="0 0 329.213 372.378" enable-background="new 0 0 329.213 372.378"
	 xml:space="preserve">
<g>
	<path fill="#BC9B6A" d="M309.017,225.188c-3.91-2.148-8.039-3.804-12.269-5.197c-3.083-1.017-6.231-1.812-9.435-2.355
		c-2.368-0.405-4.717-1.002-7.106-1.201c-4.545-0.385-9.111-0.543-13.67-0.79c-0.392-0.027-0.783-0.034-1.175-0.068
		c-2.664-0.21-5.324-0.46-7.992-0.639c-3.955-0.274-7.917-0.412-11.875-0.762c-3.018-0.261-6.015-0.752-9.022-1.161
		c-2.049-0.274-4.096-0.569-6.142-0.893c-1.518-0.24-3.021-0.497-4.511-0.837c-2.523-0.57-4.841-1.56-6.88-3.224
		c-3.402-2.771-6.104-6.156-8.672-9.675c-0.12-0.168-0.179-0.374-0.292-0.614c0.223-0.48,0.436-0.979,0.684-1.459
		c0.397-0.779,0.844-1.531,1.229-2.324c2.719-5.641,3.948-11.649,4.147-17.876c0.103-3.112-0.052-6.226-0.147-9.34
		c-0.145-4.767-0.79-9.463-2.448-13.954c-1.085-2.94-2.386-5.802-3.539-8.722c-1.445-3.665-3.169-7.182-5.428-10.416
		c-0.509-0.711-1.006-1.437-1.463-2.182c-2.496-4.099-5.686-7.646-8.871-11.195c-1.119-1.262-2.214-2.549-3.326-3.816
		c-1.236-1.399-2.448-2.826-3.732-4.176c-2.032-2.147-4.133-4.231-6.165-6.372c-0.306-0.319-0.536-0.829-0.57-1.272
		c-0.172-2.166-0.261-4.339-0.385-6.514c-0.137-2.415-0.209-4.834-0.412-7.24c-0.356-4.309-0.748-8.61-1.212-12.909
		c-0.449-4.144-1.009-8.272-1.521-12.411c-0.415-3.295-0.934-6.576-1.504-9.851c-0.683-3.902-1.387-7.786-2.554-11.575
		c-0.529-1.697-0.955-3.433-1.429-5.149c-0.342-1.248-0.639-2.517-1.033-3.749c-0.938-2.903-1.996-5.768-2.858-8.688
		c-0.765-2.569-1.948-4.94-3.067-7.345c-0.122-0.256-0.292-0.488-0.491-0.804c-0.137,0.229-0.209,0.328-0.254,0.436
		c-1.138,2.772-1.991,5.63-2.664,8.543c-0.151,0.657-0.027,1.213,0.325,1.727c1.478,2.165,2.423,4.592,3.297,7.038
		c0.694,1.952,1.131,4.003,1.756,5.987c2.013,6.399,3.714,12.881,5.044,19.453c0.611,3.018,1.044,6.072,1.587,9.102
		c0.103,0.571-0.052,1.002-0.468,1.378c-0.717,0.637-1.409,1.318-2.159,1.921c-1.991,1.615-4.046,3.145-5.996,4.8
		c-1.892,1.602-3.579,3.43-4.896,5.546c-1.509,2.439-2.489,5.112-3.183,7.992c-0.053-0.22-0.108-0.381-0.13-0.541
		c-0.192-1.771-0.307-3.559-0.598-5.316c-1.069-6.492-2.149-12.991-3.325-19.468c-0.594-3.242-1.569-6.391-2.818-9.446
		c-0.361-0.896-0.685-1.811-0.957-2.733c-0.818-2.853-1.967-5.581-3.222-8.264c-0.163-0.345-0.304-0.764-0.891-0.58
		c-0.1,0.249-0.237,0.522-0.328,0.805c-0.644,2.01-1.212,4.051-1.937,6.03c-0.539,1.499-0.305,2.783,0.435,4.147
		c0.834,1.533,1.522,3.148,2.209,4.758c0.495,1.161,0.942,2.355,1.315,3.569c0.888,2.818,1.844,5.624,2.534,8.499
		c0.633,2.631,0.959,5.349,1.434,8.025c0.231,1.306,0.491,2.605,0.75,4.017c-0.688,0.601-1.356,1.25-2.091,1.814
		c-2.268,1.752-4.489,3.555-6.438,5.673c-2.062,2.252-4.115,4.513-5.301,7.396c-0.632,1.529-1.159,3.105-1.737,4.661
		c-0.124,0.338-0.29,0.659-0.435,0.983c-0.062-0.021-0.125-0.048-0.194-0.07c-0.017-0.416-0.046-0.836-0.06-1.257
		c-0.065-2.168-0.055-4.346-0.202-6.516c-0.22-3.16-0.508-6.32-0.85-9.476c-0.153-1.43-0.554-2.843-0.753-4.277
		c-0.719-5.294-2.081-10.42-4.046-15.384c-0.103-0.252-0.352-0.441-0.652-0.793c-0.173,0.508-0.285,0.779-0.367,1.061
		c-0.68,2.317-1.327,4.645-2.036,6.952c-0.209,0.673-0.177,1.279,0.022,1.941c0.931,3.097,1.898,6.178,2.712,9.307
		c1.248,4.781,1.693,9.697,2.206,14.592c0.033,0.302-0.07,0.663-0.23,0.922c-0.23,0.386-0.589,0.688-0.864,1.043
		c-1.481,1.937-3.002,3.852-4.417,5.836c-1.691,2.386-2.525,5.206-3.737,7.827c-1.001,2.156-0.585,3.993,0.87,5.689
		c0.898,1.054,1.894,2.025,2.846,3.038c0.197,0.209,0.405,0.41,0.608,0.613c-0.035,0.072-0.07,0.139-0.106,0.206
		c-0.589-0.182-1.187-0.324-1.763-0.548c-3.211-1.227-6.507-2.135-9.88-2.772c-2.865-0.537-5.718-1.128-8.578-1.668
		c-1.978-0.378-3.951-0.863-5.946-1.013c-2.99-0.233-6.005-0.328-9.002-0.266c-3.781,0.077-7.563,0.359-11.344,0.579
		c-1.468,0.082-2.939,0.175-4.389,0.369c-1.284,0.165-2.537,0.501-3.811,0.705c-3.787,0.611-7.431,1.76-11.013,3.062
		c-5.312,1.922-10.196,4.719-14.915,7.824c-4.206,2.765-7.882,6.054-10.416,10.497c-0.034,0.049-0.07,0.099-0.106,0.147
		c-1.854,2.961-3.321,6.116-4.187,9.5c-1.137,4.423-1.481,8.936-0.721,13.483c0.69,4.14,1.784,8.124,4.094,11.713
		c1.548,2.405,3.378,4.551,5.265,6.67c0.27,0.304,0.544,0.601,0.861,0.944c-0.39,0.209-0.673,0.381-0.97,0.522
		c-2.896,1.333-5.793,2.664-8.691,3.981c-1.485,0.671-2.999,1.255-4.463,1.958c-1.22,0.58-2.463,1.157-3.555,1.946
		c-1.413,1.017-2.688,2.231-4.01,3.372c-0.295,0.254-0.547,0.562-0.82,0.841c0.048,0.059,0.101,0.124,0.146,0.182
		c8.157-3.673,16.223-7.573,24.957-10.186c0.481,0.399,0.991,0.769,1.451,1.201c4.861,4.607,10.344,8.38,16.053,11.807
		c4.315,2.589,8.893,4.689,13.605,6.44c3.694,1.363,7.514,2.279,11.372,3.09c5.131,1.071,10.255,1.185,15.425,0.734
		c3.802-0.329,7.577-0.865,11.288-1.812c2.302-0.598,4.629-1.078,6.722-2.272c1.099-0.632,2.214-1.226,3.296-1.875
		c0.825-0.504,1.63-1.029,2.388-1.627c2.252-1.771,4.406-3.652,6.325-5.795c0.259-0.288,0.596-0.494,0.896-0.738
		c-1.075,1.81-2.293,3.464-3.392,5.194c-1.689,2.664-3.6,5.149-5.733,7.45c-3.696,3.992-7.282,8.061-10.329,12.585
		c-1.357,2.025-2.544,4.127-3.184,6.475c-0.546,2.009-0.894,4.068-1.415,6.088c-0.676,2.64-0.628,5.29-0.017,7.906
		c0.92,3.938,2.515,7.58,4.86,10.924c2.166,3.093,4.906,5.503,8.078,7.392c5.034,2.993,10.68,4.167,16.388,4.905
		c2.762,0.351,5.579,0.316,8.372,0.405c4.202,0.127,8.327-0.433,12.416-1.407c2.92-0.693,5.297-2.328,7.646-4.106
		c2.562-1.95,4.479-4.363,5.828-7.265c0.587-1.263,1-2.567,0.993-4.01c-0.007-1.105,0.176-2.214,0.274-3.357
		c0.79,0.014,1.453-0.329,2.17,0.079c0,0.711-0.037,1.404,0.004,2.098c0.168,2.936,1.912,5.081,4.545,5.383
		c1.418,0.165,2.901,0.21,4.302-0.021c5.129-0.865,9.784-2.938,13.911-6.104c2.99-2.297,5.575-4.979,7.096-8.542
		c0.354-0.823,1.068-1.359,1.898-1.837c1.545,1.68,3.189,3.228,5.181,4.33c2.016,1.111,4.182,1.771,6.472,2.307
		c0.351-0.439,0.707-0.804,0.975-1.229c0.749-1.174,1.49-2.354,2.177-3.56c0.292-0.512,0.577-1.089,0.643-1.665
		c0.141-1.16,0.198-2.349,0.175-3.522c-0.055-2.458-0.92-4.676-2.177-6.739c-1.325-2.187-3.722-3.106-6.097-1.521
		c-1.243,0.823-2.273,1.867-3.062,3.158c-0.268,0.453-0.584,0.868-0.944,1.4c-0.24-0.467-0.415-0.793-0.607-1.181
		c-1.366,1.194-2.376,2.547-3.083,4.092c-1.054,2.287-2.65,4.141-4.601,5.604c-4.175,3.158-8.6,5.897-13.681,7.374
		c-1.775,0.508-3.567,0.886-5.414,0.728c-1.366-0.116-2.447-0.807-3.453-1.923c0.583-0.227,1.022-0.404,1.469-0.559
		c1.483-0.498,3.015-0.862,4.439-1.494c4.857-2.128,9.485-4.707,13.928-7.607c1.98-1.298,3.646-2.938,4.779-5.098
		c1.105-2.112,1.682-4.405,2.279-6.671c0.46-1.751,0.116-3.447-1.621-4.524c-0.871-0.532-1.709-1.134-2.637-1.566
		c-3.014-1.435-5.97-1.428-8.781,0.55c-0.487,0.347-0.979,0.714-1.404,1.136c-2.365,2.366-4.721,4.741-7.068,7.138
		c-0.224,0.22-0.371,0.522-0.553,0.79l-0.275-0.213c0.189-0.584,0.396-1.174,0.581-1.771c0.988-3.214,1.194-6.544,1.222-9.867
		c0.034-3.412-0.168-6.832-0.264-10.244c-0.086-2.719-0.148-5.441-0.258-8.164c-0.034-0.852-0.21-1.702-0.316-2.567
		c0.437,0.247,0.763,0.549,1.037,0.886c2.249,2.764,4.49,5.527,6.715,8.305c1.964,2.451,3.859,4.964,6.413,6.849
		c0.323,0.233,0.646,0.446,0.989,0.684c-0.244,0.628-0.357,1.026-0.55,1.376c-0.401,0.738-0.879,1.442-1.276,2.184
		c-0.248,0.457-0.468,0.955-0.275,1.586c1.504-0.947,2.184-2.558,3.357-3.652c3.028,2.327,6.234,4.13,9.819,5.211
		c4.078,1.223,8.29,1.737,12.493,2.231c3.875,0.46,7.789,0.643,11.683,0.941c1.318,0.096,2.644,0.13,3.962,0.24
		c3.766,0.326,7.539,0.687,11.309,1.006c1.311,0.113,2.64,0.141,3.954,0.257c2.634,0.258,5.26,0.625,7.893,0.811
		c3.581,0.24,7.117,0.776,10.592,1.606c4.792,1.15,9.338,2.987,13.457,5.747c0.687,0.464,1.353,0.557,2.125,0.412
		c1.679-0.309,3.375-0.598,5.058-0.872c0.796-0.13,1.596-0.213,2.358-0.315c0.141-0.543-0.186-0.734-0.494-0.924
		c-2.479-1.555-5.058-2.914-7.763-4.027c-3.708-1.523-7.628-2.18-11.531-2.835c-4.412-0.735-8.875-1.144-13.32-1.669
		c-2.002-0.236-4.007-0.401-6.005-0.625c-3.433-0.384-6.866-0.816-10.299-1.163c-4.899-0.502-9.812-0.903-14.708-1.425
		c-2.87-0.31-5.713-0.776-8.568-1.154c-3.701-0.487-7.124-1.829-10.3-3.684c-2.492-1.445-4.778-3.265-6.839-5.317
		c-0.247-0.24-0.418-0.566-0.687-0.938c0.525-0.69,1.013-1.349,1.436-1.919c2.056,1.597,3.92,3.234,5.977,4.587
		c2.489,1.641,5.235,2.821,8.051,3.817c2.424,0.858,4.95,1.185,7.48,1.597c3.622,0.58,7.251,1.033,10.903,1.342
		c2.517,0.202,5.033,0.412,7.55,0.611c3.385,0.281,6.763,0.562,10.155,0.831c2.238,0.171,4.486,0.343,6.735,0.515
		c1.559,0.116,3.117,0.233,4.676,0.388c2.626,0.261,5.287,0.374,7.876,0.869c5.369,1.009,10.731,2.084,15.93,3.848
		c2.485,0.838,4.967,1.638,7.195,3.076c1.141,0.731,2.297,1.442,3.402,2.222c0.662,0.467,1.342,0.652,2.119,0.562
		c0.445-0.048,0.893-0.103,1.332-0.188c1.623-0.315,3.246-0.628,4.861-0.981c0.74-0.162,1.461-0.423,2.279-0.663
		C311.462,226.624,310.25,225.865,309.017,225.188z M213.681,233.569c1.302,0.734,2.266,2.214,2.712,4.264
		c-2.293-0.834-4.137-2.111-5.716-3.794C211.642,233.084,212.589,232.954,213.681,233.569z M178.464,171.357v4.365
		c-1.249-1.308-2.444-2.408-3.46-3.662c-1.792-2.195-3.914-4.021-6.064-5.813c-2.108-1.753-4.178-3.555-6.545-4.966
		c-0.941-0.558-1.432-1.327-1.432-2.509c0-1.257-0.263-2.513-0.261-3.902c0.812,0.685,1.662,1.346,2.431,2.074
		c1.444,1.376,2.802,2.841,4.266,4.176c1.586,1.44,3.291,2.738,4.88,4.169c1.766,1.6,3.465,3.275,5.178,4.93
		C177.818,170.575,178.135,170.981,178.464,171.357z M160.169,146.203c-0.4-0.317-0.573-0.712-0.625-1.237
		c-0.3-3.219-0.666-6.427-0.961-9.646c-0.082-0.918-0.014-1.857-0.014-2.988c2.206,2.087,4.298,4.036,6.346,6.025
		c1.341,1.306,2.629,2.655,3.881,4.037c0.485,0.525,0.839,1.173,1.232,1.782c0.932,1.441,1.898,2.863,2.757,4.351
		c1.95,3.368,3.749,6.812,4.504,10.703c0.062,0.344,0.104,0.69,0.007,1.133c-0.261-0.231-0.562-0.433-0.775-0.702
		c-1.834-2.4-4.209-4.214-6.58-6.022c-2.916-2.235-5.855-4.432-8.785-6.649C160.823,146.735,160.5,146.464,160.169,146.203z
		 M161.69,85.82c2.626-2.255,5.271-4.497,7.945-6.691c0.849-0.692,1.458-1.493,1.862-2.496c0.488-1.2,1.021-2.377,1.528-3.562
		c0.068,0.005,0.123,0.017,0.192,0.027c0.315,2.35,0.632,4.707,0.94,7.063c0.315,2.401,0.646,4.789,0.92,7.189
		c0.271,2.374,0.512,4.747,0.707,7.125c0.189,2.399,0.31,4.798,0.46,7.204c-0.092,0.035-0.191,0.067-0.281,0.106
		c-1.078-0.867-2.163-1.715-3.227-2.588c-3.338-2.733-6.666-5.458-9.98-8.215c-1.09-0.905-2.042-1.95-2.837-3.282
		C160.5,87.077,161.04,86.38,161.69,85.82z M156.521,93.905c0.179,0.201,0.289,0.295,0.362,0.411
		c1.172,1.792,2.707,3.215,4.369,4.545c1.639,1.318,3.126,2.834,4.739,4.182c1.777,1.495,3.643,2.877,5.435,4.353
		c1.552,1.283,3.059,2.626,4.579,3.954c0.467,0.412,0.729,0.915,0.749,1.584c0.048,1.537,0.188,3.073,0.247,4.611
		c0.096,2.534,0.116,5.072,0.243,7.608c0.176,3.438,0.491,6.871,0.622,10.312c0.096,2.675,0.021,5.359,0.021,8.204
		c-0.396-0.599-0.741-1.073-1.03-1.588c-1.654-2.937-4.033-5.251-6.368-7.611c-1.329-1.356-2.7-2.673-3.948-4.101
		c-2.449-2.803-5.209-5.278-7.861-7.862c-0.608-0.592-0.917-1.229-0.931-2.065c-0.034-1.752-0.149-3.507-0.167-5.258
		c-0.043-5.132-0.208-10.267-0.682-15.387c-0.144-1.559-0.254-3.129-0.371-4.694C156.503,94.748,156.521,94.393,156.521,93.905z
		 M155.502,153.621c-1.39-1.653-2.262-3.499-3.474-5.11c0.051-0.055,0.104-0.104,0.16-0.161c1.023,0.942,2.073,1.859,3.062,2.839
		C155.708,151.643,155.722,152.306,155.502,153.621z M139.646,101.373c1.574-1.615,3.191-3.196,4.82-4.757
		c0.938-0.896,1.984-1.675,2.889-2.601c0.462-0.472,0.769-1.133,1.05-1.751c0.742-1.639,1.428-3.297,2.137-4.947
		c0.102,0.008,0.196,0.017,0.293,0.024c0.189,0.62,0.439,1.228,0.551,1.859c0.312,1.778,0.611,3.574,0.824,5.37
		c0.325,2.853,0.589,5.709,0.843,8.567c0.3,3.251,0.581,6.497,0.838,9.757c0.134,1.742,0.213,3.482,0.317,5.225
		c-0.091,0.035-0.189,0.065-0.282,0.095c-0.41-0.426-0.836-0.846-1.244-1.282c-3.432-3.69-7.093-7.146-10.878-10.464
		c-0.517-0.46-1.037-0.917-1.574-1.356c-0.7-0.568-1.189-1.272-1.445-2.35C139.018,102.375,139.245,101.788,139.646,101.373z
		 M134.799,108.877c0.062-0.038,0.117-0.065,0.182-0.098c0.204,0.293,0.386,0.603,0.613,0.877c0.648,0.792,1.251,1.627,1.976,2.34
		c2.357,2.334,4.745,4.643,7.147,6.926c2.618,2.496,5.267,4.956,7.91,7.427c0.13,0.125,0.257,0.259,0.408,0.354
		c1.107,0.685,1.477,1.675,1.514,2.976c0.108,3.862,0.328,7.73,0.501,11.59c0.008,0.211,0,0.42,0,0.798
		c-0.479-0.233-0.848-0.36-1.167-0.569c-2.968-1.949-6.023-3.777-8.855-5.912c-1.691-1.272-3.037-3.004-4.494-4.575
		c-1.313-1.409-2.544-2.904-3.86-4.312c-0.783-0.837-1.213-1.711-1.183-2.906c0.026-1.234-0.227-2.467-0.293-3.701
		c-0.151-2.686-0.282-5.377-0.39-8.062C134.766,110.98,134.799,109.929,134.799,108.877z M144.271,149.313
		c-2.897-0.985-5.508-2.588-8.347-3.895c-0.079-2.106-0.155-4.225-0.235-6.35c0.094-0.036,0.184-0.077,0.276-0.117
		C139.118,142.073,141.617,145.747,144.271,149.313z M132.356,149.224c0.719,9.077,1.517,18.153,1.768,27.328
		c-0.192-0.033-0.322-0.024-0.407-0.079c-1.716-1.153-3.014-2.619-3.584-4.693c-0.352-1.273-0.891-2.496-1.382-3.722
		c-0.077-0.188-0.366-0.293-0.661-0.51c-0.697,1.322-1.327,2.51-1.95,3.715c-0.5,0.949-0.426,1.866-0.062,2.867
		c0.587,1.608,1.048,3.268,1.543,4.911c0.373,1.228,0.252,2.444-0.115,3.739c-2.03,0.52-4.056,0.819-5.831-0.764
		c-1.733-1.543-3.362-3.212-5.148-4.685c-2.253-1.859-4.539-3.696-6.96-5.311c-1.832-1.215-4.037-1.536-6.226-1.542
		c-5.402-0.015-10.723,0.635-15.954,2.015c-0.491,0.132-0.994,0.209-1.502,0.29c-0.175,0.028-0.357,0-0.616,0
		c-0.393-0.535-0.827-1.073-1.201-1.651c-1.336-2.06-2.36-4.275-3.145-6.604c-0.536-1.6-0.589-3.27-0.53-4.928
		c0.046-1.267,0.218-2.527,0.357-3.789c0.244-2.324,1.397-4.216,2.839-5.961c0.688-0.834,1.378-1.684,2.109-2.479
		c0.443-0.486,0.927-0.973,1.469-1.329c4.743-3.065,9.918-4.784,15.576-4.621c4.904,0.137,9.772,0.723,14.506,2.074
		c2.479,0.7,4.928,1.546,7.342,2.454c2.333,0.874,4.607,1.914,6.902,2.882c0.221,0.093,0.433,0.208,0.649,0.321
		C132.208,149.176,132.284,149.195,132.356,149.224z M119.044,186.109c-1.229,0.412-2.489,0.51-3.766,0.524
		c-3.878,0.046-7.613-0.792-11.334-1.842c-5.441-1.538-10.217-4.284-14.592-7.819c-0.343-0.276-0.656-0.594-0.983-0.887
		c0.031-0.078,0.062-0.156,0.093-0.23c1.818-0.168,3.637-0.441,5.458-0.469c2.065-0.027,4.149,0.038,6.195,0.307
		c2.996,0.4,5.527,1.849,7.798,3.855c1.799,1.593,3.706,3.081,5.635,4.511C115.163,185.246,116.954,186.103,119.044,186.109z
		 M125.641,113.989c0.513-0.702,1.075-1.383,1.686-2.001c0.824-0.837,1.396-1.793,1.741-2.915c0.398-1.264,0.82-2.525,1.237-3.78
		c0.065-0.186,0.163-0.369,0.239-0.553c0.062,0.007,0.12,0.012,0.177,0.022c0.479,5.52,0.273,11.065,0.479,16.592
		c-0.079,0.04-0.156,0.078-0.233,0.122c-0.729-0.603-1.524-1.138-2.184-1.809c-1.078-1.087-2.106-2.239-3.091-3.413
		C124.941,115.371,124.948,114.94,125.641,113.989z M47.653,181.979c-1.773-2.252-3.601-4.472-5.208-6.839
		c-2.261-3.344-3.457-7.122-4.209-11.103c-0.996-5.278-0.474-10.433,1.162-15.464c1.087-3.364,3.054-6.272,5.486-8.873
		c1.675-1.791,3.478-3.451,5.464-4.856c1.912-1.35,3.998-2.445,6.03-3.614c0.675-0.384,1.442-0.604,2.137-0.961
		c3.467-1.789,7.12-3.002,10.912-3.921c4.661-1.123,9.365-1.919,14.127-2.334c4.063-0.349,8.148-0.25,12.23,0.204
		c3.409,0.378,6.787,0.879,10.152,1.521c4.945,0.941,9.544,2.853,14.113,4.87c3.526,1.55,7.059,3.078,10.612,4.566
		c0.91,0.383,1.258,0.913,1.241,1.921c-0.029,1.991,0.072,3.987,0.122,5.982c0,0.117-0.038,0.233-0.086,0.531
		c-0.395-0.121-0.707-0.182-0.992-0.308c-3.831-1.705-7.894-2.491-11.985-3.196c-1.596-0.276-3.172-0.738-4.775-0.893
		c-2.777-0.261-5.568-0.403-8.361-0.491c-1.705-0.062-3.423-0.04-5.124,0.122c-2.898,0.27-5.807,0.498-8.652,1.171
		c-3.948,0.931-7.693,2.274-11.018,4.736c-2.048,1.512-4.065,3.014-5.685,4.994c-2.024,2.467-3.368,5.22-3.94,8.421
		c-0.578,3.237-0.702,6.434,0.057,9.626c0.515,2.149,1.468,4.147,2.594,6.049c0.333,0.565,0.697,1.119,1.118,1.794
		c-0.455,0.158-0.803,0.293-1.164,0.403c-4.351,1.279-8.725,2.485-13.052,3.85c-2.865,0.895-5.663,2.007-8.5,2.996
		c-0.98,0.341-1.989,0.616-2.975,0.911C48.8,183.123,48.153,182.609,47.653,181.979z M127.989,199.378
		c-3.181,2.822-6.864,4.689-10.979,5.812c-3.349,0.916-6.725,1.616-10.153,2.015c-2.077,0.244-4.209,0.024-6.31,0.127
		c-3.735,0.199-7.233-1.002-10.807-1.768c-4.901-1.044-9.537-2.856-14.045-5.043c-2.705-1.309-5.469-2.51-8.102-3.952
		c-4.352-2.403-8.565-5.031-12.488-8.105c-0.642-0.503-1.284-0.995-1.917-1.503c-0.3-0.244-0.577-0.517-0.958-0.852
		c0.332-0.16,0.558-0.276,0.795-0.383c4.266-1.912,8.784-3.074,13.252-4.367c3.289-0.948,6.602-1.811,9.894-2.745
		c0.925-0.264,1.645-0.178,2.334,0.591c3.321,3.679,7.4,6.329,11.764,8.574c2.993,1.543,6.214,2.42,9.506,2.979
		c2.306,0.389,4.64,0.82,6.966,0.837c3.562,0.029,7.145-0.143,10.579-1.354c1.391-0.49,2.82-0.854,4.207-1.335
		c3.2-1.133,5.553-3.296,7.349-6.139c0.273-0.427,0.551-0.861,0.843-1.287c0.081-0.117,0.201-0.216,0.312-0.338
		c1.366,0.809,2.705,1.598,4.183,2.472c0.029,0.336,0.096,0.81,0.102,1.282c0.008,2.453-0.01,4.904,0.012,7.354
		c0.01,0.784-0.247,1.354-0.837,1.89C131.632,195.86,129.876,197.696,127.989,199.378z M130.691,203.264
		c1.047-2.073,2.264-4.061,3.577-6.056c0.041,1.267,0.136,2.541,0.124,3.804c-0.019,1.964-0.069,3.935-0.179,5.898
		c-0.237,4.277-0.522,8.562-0.791,12.847c-0.091,1.448-0.191,2.894-0.275,4.343c-0.014,0.292,0.036,0.59,0.052,0.882l0.178,0.072
		c0.192-0.299,0.443-0.587,0.562-0.92c1.814-4.957,3.243-10.004,3.26-15.343c0.003-0.604,0.139-1.208,0.158-1.812
		c0.076-2.197,0.154-4.404,0.173-6.612c0.044-3.989,0.04-7.985,0.077-11.979c0.016-1.503,0.102-3.009,0.156-4.54
		c0.742-0.177,1.44-0.343,2.134-0.513c0.706-0.182,1.363-0.081,2.003,0.271c0.736,0.402,1.49,0.781,2.238,1.171
		c2.104,1.095,4.198,2.225,6.322,3.285c1.972,0.979,3.34,0.592,4.577-1.256c1.114-1.664,1.615-3.574,1.97-5.501
		c0.227-1.215,0.352-2.463,0.319-3.699c-0.046-1.937-1.014-3.536-2.315-4.885c-1.415-1.483-2.947-2.846-4.396-4.302
		c-0.841-0.846-1.615-1.766-2.417-2.65c0.043-0.055,0.082-0.111,0.127-0.167c0.81,0.07,1.629,0.151,2.51,0.229
		c-0.093-0.858-0.562-1.384-1.075-1.803c-1.893-1.543-3.821-3.042-5.747-4.542c-0.242-0.188-0.577-0.249-1.009-0.42
		c-0.324,1.801-0.709,3.483-0.897,5.179c-0.057,0.504,0.431,1.071,0.728,1.733c-0.321,0.381-0.731,0.891-1.162,1.382
		c-1.727,1.988-2.605,4.398-3.402,6.847c-0.322,0.985-0.204,1.971,0.029,2.958c0.062,0.256,0.119,0.519,0.211,0.893
		c-0.328-0.032-0.499-0.05-0.712-0.07c-0.026-0.302-0.057-0.57-0.072-0.832c-0.189-4.175-0.326-8.344-0.583-12.509
		c-0.192-3.164-0.568-6.32-0.796-9.487c-0.098-1.286-0.019-2.585-0.019-4.003c0.523,0.227,0.999,0.398,1.445,0.62
		c4.42,2.197,8.333,5.168,12.282,8.09c1.279,0.956,2.626,1.816,3.909,2.767c1.083,0.809,2.149,1.657,3.155,2.556
		c0.319,0.287,0.562,0.813,0.599,1.248c0.186,2.264,0.33,4.525,0.42,6.787c0.148,3.507,0.232,7.014,0.344,10.522
		c0.127,4.167,0.263,8.337,0.393,12.51c0.118,3.688,0.141,7.374,0.393,11.055c0.156,2.32-0.84,3.976-2.306,5.558
		c-2.425,2.62-5.491,4.065-8.862,4.94c-0.875,0.227-1.76,0.408-2.644,0.562c-0.951,0.169-1.694,0.591-2.125,1.49
		c-0.755,1.572-1.511,3.145-2.358,4.92c5.352,0.601,10.213,2.297,15.076,4.721c-3.17,0.965-6.169,1.878-9.238,2.812
		c-0.62-0.972-1.203-1.919-1.837-2.832c-0.648-0.941-1.337-1.861-2.039-2.761c-0.656-0.841-1.561-1.167-2.597-1.264
		c-4.851-0.453-7.311,2.777-8.002,6.193c-0.247,1.212-0.194,2.534-0.026,3.767c0.187,1.342,1.083,2.263,2.358,2.764
		c2.503,0.968,5.048,0.961,7.632,0.446c0.608-0.124,1.229-0.206,1.902-0.312c0.256,0.745,0.521,1.391,0.68,2.06
		c0.213,0.862-0.034,1.593-0.798,2.129c-1.902,1.362-4.048,2.111-6.309,2.558c-3.411,0.68-6.538-0.326-9.393-2.019
		c-3.073-1.819-5.502-4.363-7.227-7.566c-1.197-2.231-1.492-4.528-1.073-7.018c0.742-4.367,2.371-8.404,4.328-12.346
		C126.52,211.84,128.551,207.525,130.691,203.264z M141.548,171.823c0.452-0.678,1.112-1.245,1.752-1.773
		c0.458-0.377,0.939-0.213,1.404,0.308c1.153,1.301,1.692,3.241,1.447,5.33c-0.625,0.527-1.26,1.226-2.096,1.052
		c-1.054-0.22-2.084-0.798-2.583-1.792C140.982,173.97,140.908,172.791,141.548,171.823z M146.899,178.742
		c0.501-1.516,1.304-2.654,2.292-3.809c0.633,0.537,1.28,0.977,1.806,1.54c1.104,1.179,2.209,2.374,3.191,3.66
		c0.411,0.536,0.525,1.32,0.731,2.005c0.051,0.172-0.042,0.386-0.103,0.819C151.954,181.711,149.209,180.656,146.899,178.742z
		 M140.542,232.806c-1.65,0.423-4.106-0.265-4.593-1.287C137.458,230.53,139.868,231.231,140.542,232.806z M176.528,239.436
		c-0.31,0.666-0.722,1.07-1.449,1.194c-1.527,0.254-3.042,0.288-4.549-0.145c-0.555-0.154-0.977-0.429-1.257-0.947
		c-0.363-0.663-0.719-1.325-1.122-1.96c-0.362-0.577-0.786-1.119-1.262-1.782c-0.213,0.36-0.364,0.542-0.446,0.759
		c-0.562,1.527-1.121,3.059-1.656,4.597c-0.273,0.786-0.134,1.538,0.334,2.238c0.405,0.601,0.738,1.25,1.135,1.854
		c1.433,2.225,2.013,4.775,2.643,7.285c0.056,0.229,0.024,0.48,0.04,0.751c-2.829,2.489-6.008,4.186-9.723,4.868
		c-4.818,0.89-9.669,0.979-14.551,0.793c-4.159-0.154-8.286-0.638-12.328-1.517c-9.135-1.964-15.739-7.134-19.193-16.081
		c-0.923-2.393-1.527-4.837-1.694-7.381c-0.109-1.617,0.188-3.203,0.72-4.725c0.556-1.593,1.127-3.199,1.873-4.71
		c0.515-1.036,1.26-1.984,2.024-2.863c1.876-2.169,3.812-4.277,5.738-6.405c0.211-0.234,0.477-0.434,0.839-0.752
		c-0.089,1.167-0.556,2.025-0.958,2.914c-1.131,2.465-2.305,4.916-3.344,7.426c-1.177,2.847-1.662,5.86-1.8,8.923
		c-0.043,0.934,0.008,1.882-0.009,2.802c-0.029,1.332,0.204,2.602,0.777,3.786c2.187,4.542,5.292,8.25,9.92,10.375
		c4.185,1.933,8.451,1.905,12.613-0.175c0.793-0.405,1.6-0.928,2.165-1.6c1.56-1.868,3.138-3.735,3.883-6.156
		c0.596-1.926,1.376-3.801,2.094-5.75c2.846-0.955,5.69-1.919,8.545-2.86c2.674-0.882,5.407-1.287,8.231-1.355
		c2.627-0.056,5.214,0.24,7.822,0.415c0.622,0.038,1.253,0.059,1.978,0.1c1.123-1.62,2.492-3.069,3.252-5.129
		c-0.591-0.09-1.044-0.206-1.504-0.227c-4.738-0.192-9.39-0.954-13.865-2.541c-2.69-0.954-5.32-2.062-7.977-3.109
		c-0.695-0.271-1.387-0.543-2.166-0.845c1.351-1.408,2.748-2.644,3.895-4.096c1.131-1.432,2.014-3.06,3.009-4.597
		c0.063,0.006,0.125,0.02,0.189,0.03c0.014,0.271,0.058,0.539,0.041,0.813c-0.179,2.671,0.005,5.298,0.826,7.879
		c1.058,3.327,3.562,4.426,6.71,3.348c2.311-0.804,4.096-2.242,5.307-4.391c1.243-2.208,2.197-4.535,2.507-7.042
		c0.22-1.785,0.147-3.625,0.052-5.431c-0.169-3.172-0.45-6.331-0.69-9.496c-0.062-0.748-0.158-1.497-0.22-2.256
		c-0.027-0.35-0.004-0.703-0.004-1.17c1.13,0.658,1.528,2.046,3.021,2.293c-0.109-0.831-0.175-1.538-0.312-2.238
		c-0.611-3.277-1.627-6.429-2.949-9.486c-0.683-1.578-1.239-3.211-1.898-4.94c-0.285,0.135-0.583,0.182-0.688,0.35
		c-0.739,1.181-1.505,2.348-2.105,3.593c-0.255,0.518-0.337,1.289-0.151,1.828c0.591,1.72,0.605,3.508,0.798,5.273
		c0.33,2.915,0.581,5.836,0.824,8.755c0.194,2.266,0.306,4.527,0.479,6.787c0.125,1.531,0.324,3.062,0.439,4.6
		c0.137,1.861,0.346,3.735,0.062,5.651c-1.533,1.174-3.241,1.881-5.213,1.909c-0.992,0.017-1.742-0.412-2.285-1.209
		c-0.611-0.893-0.906-1.902-0.942-2.983c-0.122-3.625-0.252-7.254-0.354-10.88c-0.084-3.082,0.019-6.179-0.215-9.248
		c-0.417-5.502-0.261-11.003-0.384-16.501c-0.06-2.417-0.287-4.827-0.417-7.246c-0.05-0.923-0.228-1.866,0.199-2.937
		c0.847,0.824,1.658,1.562,2.417,2.36c3.438,3.636,6.871,7.277,10.284,10.947c1.146,1.234,2.214,2.549,3.274,3.86
		c1.071,1.315,1.432,2.94,1.58,4.562c0.329,3.701,0.535,7.419,0.782,11.12c0.147,2.053,0.31,4.099,0.412,6.151
		c0.274,5.555,1.092,11.072,0.995,16.654c-0.041,2.616-0.315,5.208-1.14,7.68c-0.46,1.387-1.312,2.644-1.991,3.948
		C177.805,236.974,177.118,238.186,176.528,239.436z M183.126,233.386c1.848-2.056,3.832-3.992,5.823-5.922
		c1.654-1.617,3.779-2.207,6.011-2.304c0.903-0.034,1.851,0.24,2.716,0.557c1.071,0.381,2.084,0.92,3.097,1.435
		c0.337,0.172,0.598,0.471,0.961,0.763c-0.24,0.35-0.384,0.652-0.61,0.865c-0.618,0.566-1.219,1.194-1.93,1.616
		c-4.154,2.493-8.302,5.013-12.778,6.87c-2.259,0.94-4.662,1.538-7.007,2.286c-0.134,0.034-0.285,0.027-0.594,0.055
		c0.344-0.642,0.57-1.194,0.906-1.665C180.826,236.401,181.87,234.788,183.126,233.386z M203.711,205.414
		c-0.13,0.199-0.271,0.388-0.467,0.677c-0.223-0.21-0.433-0.361-0.594-0.563c-2.682-3.258-5.414-6.475-8.023-9.794
		c-2.472-3.152-4.792-6.426-7.223-9.61c-1.137-1.481-2.345-2.917-3.592-4.301c-0.769-0.85-1.249-1.73-1.181-2.913
		c0.048-0.743-0.055-1.49-0.086-2.24c0.072-0.027,0.151-0.057,0.224-0.084c1.212,1.376,2.485,2.708,3.625,4.144
		c3.502,4.417,6.945,8.882,10.42,13.322c2.231,2.85,4.459,5.699,6.725,8.518C204.549,203.828,204.604,204.02,203.711,205.414z
		 M208.356,195.931c-0.271-0.333-0.481-0.562-0.666-0.813c-2.579-3.421-5.092-6.904-7.745-10.261
		c-2.201-2.801-4.573-5.46-6.856-8.193c-1.428-1.71-2.777-3.5-4.271-5.157c-1.634-1.812-3.303-3.612-5.122-5.23
		c-1.305-1.162-2.022-2.315-1.971-4.171c0.075-2.496-0.247-5.005-0.378-7.51c-0.034-0.63,0.035-1.269,0.021-1.898
		c-0.018-1.692-0.079-3.388-0.076-5.076c0.014-2.058,0.104-4.115,0.106-6.167c0.011-3.296,0.024-6.592-0.038-9.889
		c-0.062-3.776-0.185-7.554-0.309-11.333c-0.048-1.222-0.168-2.449-0.251-3.673c0.1-0.031,0.203-0.067,0.306-0.098
		c2.657,2.92,5.246,5.907,7.996,8.726c3.162,3.232,5.709,6.948,8.559,10.423c2.564,3.138,4.528,6.686,6.069,10.462
		c1.538,3.746,3.31,7.39,4.718,11.179c2.228,5.985,2.979,12.244,2.932,18.616c-0.021,3.297-0.014,6.591-0.381,9.872
		c-0.351,3.05-1.037,6.014-2.036,8.911C208.826,195.042,208.606,195.41,208.356,195.931z"/>
	<path fill="#BC9B6A" d="M150.548,247.393c2.052,1.683,4.41,2.486,6.516,3.894c1.073-1.923,2.115-3.749,3.121-5.603
		c0.143-0.268,0.143-0.622,0.215-0.944c-2.137-1.153-4.192-2.276-6.391-3.475C152.85,243.315,151.732,245.299,150.548,247.393z"/>
	<path fill="#BC9B6A" d="M145.007,211.099c2.924-1.477,5.845-2.97,8.784-4.419c1.281-0.631,1.478-1.809,1.828-3.127
		c-3.048,1.496-5.922,2.904-8.792,4.312c-0.062-0.062-0.12-0.116-0.186-0.179c0.191-0.59,0.393-1.184,0.568-1.771
		c0.282-0.927,0.622-1.833,0.793-2.777c0.338-1.854,0.23-3.725,0.035-5.599c-0.289-2.798-1.9-4.807-3.73-6.766
		c-0.831,0.854-0.817,1.897-0.954,2.94c0.297,0.337,0.578,0.688,0.891,1.013c1.161,1.229,2.089,2.634,2.381,4.302
		c0.252,1.415,0.422,2.897,0.273,4.312c-0.293,2.805-1.099,5.417-4.06,6.633c-0.087,0.034-0.158,0.086-0.242,0.116
		c-1.347,0.539-1.807,1.662-1.986,3.2c0.647-0.303,1.16-0.543,1.668-0.797C143.188,212.033,144.098,211.559,145.007,211.099z"/>
	<path fill="#BC9B6A" d="M218.034,339.475c-0.021-0.227-0.124-0.453-0.138-0.672c-0.027-0.522,0.041-1.051,0.045-1.566
		c0.007-0.467-0.018-0.927-0.045-1.39c-0.062-0.917,0.045-1.823,0-2.688c-0.034-0.584-0.096-1.01-0.089-1.658
		c0.014-1.157,0.309-3.835-0.357-4.535c-0.528-0.556-1.634-0.109-2.155,0.186c-0.656,0.367-1.439,0.947-2.149,1.477
		c-0.756,0.556-1.545,1.057-2.063,1.572c0.12,0.109,0.134,0.336,0.271,0.442c0.501-0.165,0.975-0.24,1.613-0.179
		c0.824,0.917,0.659,2.668,0.755,4.131c0.014,0.13,0.083,0.302,0.093,0.445c0.072,0.618,0.004,1.236,0.045,1.841
		c0.018,0.179,0.131,0.364,0.138,0.528c0.068,1.359,0.014,2.754,0,4.134c-0.034,3.233-0.056,6.148-0.042,9.723
		c0.756-0.405,1.425-0.962,2.149-1.429c0.731-0.474,1.576-0.779,2.194-1.391c0.021-1.956-0.121-3.693-0.224-5.517
		C218.007,341.758,218.116,340.595,218.034,339.475z"/>
	<path fill="#BC9B6A" d="M68.945,343.287c-0.717-2.081-1.129-4.003-1.524-5.96c-0.208-1.037-0.319-1.896-0.45-2.918
		c-0.063-0.516-0.278-1.109-0.22-1.531c0.052-0.405,0.402-0.893,0.582-1.332c0.596-1.466,1.02-2.719,1.567-4.127
		c-0.057,0-0.062-0.062-0.134-0.051c-1.967,1.253-4.101,2.33-6.144,3.505c-0.163,0.886-0.108,1.864-0.18,2.685
		c-0.145,1.71-0.675,3.584-1.119,4.848c-0.295,0.824-0.625,1.758-1.03,2.417c-0.646,1.04-1.576,2.266-2.917,2.465
		c-1.417,0.216-2.829-0.893-3.585-1.569c-0.716-0.639-1.372-1.359-1.974-2.063c-0.319-0.37-0.718-0.687-0.985-1.029
		c-1.183-1.518-2.223-3.269-3.227-5.026c-1.028-1.781-2.093-3.639-2.469-5.686c-1.26,0.766-2.586,1.477-3.809,2.287
		c-0.273,0.525-0.439,0.906-0.273,1.565c0.144,0.573,0.518,1.39,0.767,1.929c0.259,0.577,0.898,1.377,1.166,2.016
		c0.208,0.501,0.048,0.693-0.048,1.123c-0.132,0.607-0.248,1.273-0.357,1.84c-0.708,3.563-1.624,7.944-2.156,11.741
		c1.767-1.085,3.516-2.194,5.292-3.265c0.022-2.143,0.112-4.186,0.63-6.372c0.886,0.979,1.681,2.029,2.649,2.907
		c0.211,0.447,0.537,0.666,0.848,0.989c0.371,0.405,0.667,0.824,1.074,1.164c0.48,0.429,0.853,0.8,1.394,1.171
		c0.606,0.418,1.471,0.916,2.285,0.984c1.088,0.107,2.003-0.467,2.602-0.889c2.546-1.833,3.998-5.105,5.826-7.532
		c0.407,2.066,0.889,3.9,1.39,5.87c0.146,0.57,0.354,1.075,0.495,1.477c0.292,0.872,0.52,1.898,0.809,2.691
		c0.115,0.316,0.185,0.646,0.4,0.893c0.42-0.079,0.734-0.404,1.076-0.621c1.097-0.687,2.127-1.308,3.14-2.022
		c0.263-0.621-0.316-1.688-0.625-2.417C69.385,344.701,69.17,343.939,68.945,343.287z"/>
	<path fill="#BC9B6A" d="M154.5,349.926c-0.141-1.257,0.05-2.685-0.048-4.175c-0.019-0.299-0.127-0.591-0.132-0.893
		c-0.009-0.323,0.086-0.646,0.087-0.989c0.009-0.412-0.083-0.827-0.087-1.301c-0.017-1.394,0.11-2.729,0.132-4.082
		c0.024-1.384-0.022-2.54,0-3.944c0.024-1.425,0.118-2.929,0.048-4.439c-0.029-0.556-0.23-1.531-0.409-1.702
		c-0.76-0.742-2.068,0.356-2.597,0.714c-1.305,0.906-2.912,1.727-4.173,2.52c0.135,0.233,0.221,0.519,0.498,0.625
		c1.389-0.782,1.703,0.36,1.924,1.524c0.676,3.604,0.299,6.646,0.537,10.402c0.024,0.356-0.038,0.621-0.043,0.947
		c-0.016,1.105,0.088,2.349,0.043,3.398c-0.007,0.292-0.117,0.563-0.134,0.811c-0.065,1.01-0.031,2.016-0.223,3.097
		c-0.295,1.655-1.02,3.165-1.835,4.116c0.067,0.333,0.221,0.587,0.446,0.766c1.062-0.961,2.52-2.229,3.77-3.275
		c0.256-0.206,0.489-0.446,0.759-0.666c0.341-0.288,1.435-0.93,1.524-1.346c0.04-0.179-0.06-0.395-0.087-0.676
		C154.448,350.897,154.539,350.283,154.5,349.926z"/>
	<path fill="#BC9B6A" d="M81.952,336.609c-0.467-0.483-0.856-1.115-1.437-1.438c-1.114-0.614-1.994,0.46-2.775,0.813
		c-0.386,0.45-0.85,0.824-1.394,1.119c-0.249,0.539-1.552,0.793-1.035,1.521c1.646-0.831,3.014,0.58,3.773,1.517
		c0.293,0.378,0.704,0.879,0.801,1.305c-2.582,0.484-4.914,1.302-6.499,2.919c-0.594,0.604-0.987,1.353-1.481,2.066
		c-0.436,1.14-0.021,2.197,0.585,2.815c0.228,0.243,0.298,0.415,0.58,0.59c1.301,0.804,3.577,1.16,4.979,0.529
		c1.504-0.659,2.709-2.177,3.675-3.001c-0.162-0.755-0.764-0.351-1.299-0.216c-1.945,0.456-4.247-0.21-4.977-1.535
		c-0.535-0.958,0.349-1.737,1.255-1.833c1.855-0.199,3.61,0.528,4.932,1.257c1.699,1.394,2.762,3.426,3.63,5.65
		c1.3-0.845,2.604-1.668,3.811-2.603c-1.123-1.967-2.214-4.257-3.497-6.405C84.516,339.887,83.314,338.027,81.952,336.609z"/>
	<path fill="#BC9B6A" d="M117.862,335.94c-0.199-0.192-0.608-0.525-0.852-0.636c-0.585-0.25-1.033,0.038-1.519,0.134
		c-0.977,0.725-2,1.542-2.917,2.287c-0.292,0.247-0.712,0.474-0.764,0.899c0.25,0.363,0.626,0.055,0.899,0
		c0.865-0.186,1.631,0.295,2.147,0.759c0.477,0.436,0.824,0.793,1.167,1.308c0.209,0.309,0.424,0.632,0.538,0.938
		c-1.459,0.271-2.917,0.718-4.031,1.256c-1.548,0.749-2.767,1.83-3.589,3.231c-0.304,0.515-0.65,1.091-0.535,1.922
		c0.283,2.111,3.351,3.155,5.422,2.788c0.676-0.127,1.243-0.522,1.705-0.763c0.188-0.113,0.324-0.227,0.534-0.401
		c0.63-0.55,1.071-0.931,1.664-1.486c0.424-0.405,0.997-0.77,0.22-1.071c-1.881,0.882-5.464,0.233-5.962-1.62
		c-0.108-0.405,0.1-0.7,0.311-1.119c0.274-0.076,0.4-0.255,0.63-0.316c1.146-0.288,2.02,0.041,2.874,0.23
		c0.384,0.086,0.769,0.086,1.121,0.223c1.718,0.687,2.906,2.208,3.765,3.674c0.366,0.913,0.848,1.727,1.164,2.691
		c0.677-0.364,1.293-0.831,1.93-1.257c0.628-0.426,1.357-0.789,1.843-1.391c-1.836-3.611-4.058-7.899-6.598-10.934
		C118.655,336.833,118.267,336.303,117.862,335.94z"/>
	<path fill="#BC9B6A" d="M137.55,335.984c-0.149-0.206-0.467-0.49-0.63-0.587c-0.541-0.322-1.304,0.22-1.748,0.587
		c-1.237,0.999-2.372,2.242-3.454,3.038c-0.072-0.48-0.076-1.061-0.134-1.564c-0.12-0.989-0.048-2.006-0.946-2.197
		c-0.856-0.186-1.475,0.601-1.971,0.94c-0.829,0.58-1.688,1.133-2.554,1.751c-0.693,0.501-1.706,0.865-0.851,1.575
		c0.851-0.532,1.715-0.257,1.924,0.614c0.132,0.557,0.251,1.209,0.316,1.755c0.336,2.739,0.271,6.224,0.319,9.108
		c1.444-0.797,2.757-1.73,4.036-2.699c-0.027-1.084-0.068-1.987-0.053-3.082c0.014-0.536,0.122-1.123,0.096-1.662
		c-0.055-1.14-0.034-2.3,0.359-3.237c0.227-0.532,0.724-0.906,1.435-0.797c0.648,0.512,1.179,1.144,1.389,2.102
		c0.8-0.269,1.183-0.958,1.926-1.305c0.24-0.539,1.589-0.954,1.705-1.521c0.06-0.278-0.18-0.992-0.314-1.298
		C138.177,337.003,137.792,336.303,137.55,335.984z"/>
	<path fill="#BC9B6A" d="M196.602,336.373c-0.725-0.316-1.429-0.687-2.07-0.708c-1.078,0.948-2.492,1.803-3.131,3.053
		c1.373,0.573,3.11,1.04,2.822,2.911c-0.151,0.999-0.804,1.627-1.302,2.42c-0.446,0.721-0.813,1.463-1.301,1.93
		c-0.563-1.613-1.483-3.2-2.238-4.655c-0.269-0.521-0.468-1.105-0.766-1.572c-0.179-0.295-0.457-0.577-0.67-0.899
		c-0.213-0.33-0.392-0.673-0.628-0.992c-0.364-0.478-1.089-1.411-1.755-1.486c-0.597-0.042-0.823,0.274-1.16,0.594
		c-0.734,0.703-1.126,1.369-1.702,2.234c-1.089,1.642-2.184,3.563-3.368,4.944c-1.631-2.877-2.27-6.503-4.614-8.61
		c-0.807-0.145-1.198,0.171-1.747,0.532c-1.092,0.717-2.153,1.459-3.229,2.015c-0.25-2.259-2.803-3.076-5.246-2.506
		c-3.301,1.524-6.665,4.22-7.087,8.432c-0.249,2.52,1.452,4.8,3.006,6.008c0.401,0.31,0.721,0.536,1.258,0.811
		c0.647,0.322,1.224,0.549,2.014,0.532c1.576-0.024,2.605-0.835,3.682-1.748c0.79-0.673,1.678-1.277,2.283-2.019
		c-0.043-0.288-0.173-0.48-0.401-0.583c-2.975,1.407-5.622-0.014-7.042-1.923c-1.007-1.366-1.883-4.003-0.894-5.651
		c0.086-0.15,0.135-0.315,0.225-0.408c1.026-1.061,3.25-0.089,3.675,0.899c0.151,0.354,0.085,0.79-0.048,1.116
		c-0.213,0.542-0.736,1.163-1.162,1.579c-0.271,0.25-1.007,0.597-1.035,0.94c-0.017,0.199,0.261,0.433,0.318,0.446
		c0.306,0.065,1.09-0.55,1.478-0.811c1.425-0.954,3.049-1.994,4.037-2.959c0.385-0.378,0.677-0.92,0.85-1.387
		c0.065,0.113,0.102,0.254,0.273,0.268c0.846-0.315,1.639,0.329,2.147,0.981c0.999,1.281,1.881,3.595,2.558,5.342
		c0.247,0.639,0.573,1.284,0.762,1.882c0.059,0.195,0.059,0.426,0.134,0.625c0.065,0.171,0.199,0.309,0.268,0.497
		c0.337,0.865,0.536,1.916,0.807,2.692c0.405,0.058,0.481,0.058,0.896,0c0.395-1.261,1.037-2.256,1.436-3.495
		c1.197-1.912,2.066-4.157,3.811-5.527c0.363-0.141,0.659-0.278,1.167-0.175c2.65,2.169,3.554,6.08,5.197,9.234
		c0.333,0.059,0.468,0.031,0.811,0.056c2.818-4.052,5.527-8.191,8.429-12.16c0.274-0.693,0.669-1.202,0.092-1.744
		C198.02,336.928,197.277,336.688,196.602,336.373z"/>
	<path fill="#BC9B6A" d="M205.517,342.75c-0.411,0.423-1.647,1.075-0.666,1.483c1.857-1.061,4.436-2.653,5.919-4.309
		c0.254-0.281,0.453-1.13,0.446-1.524c-0.041-3.059-4.284-3.326-6.502-2.063c-1.062,0.604-2.104,1.518-3.046,2.514
		c-0.975,1.016-1.843,2.087-2.289,3.271c-0.749,2.022-0.457,4.226,0.539,5.963c1.291,1.601,2.99,3.563,5.379,3.458
		c1.572-0.072,2.774-0.992,3.722-1.793c0.741-0.648,1.504-1.339,2.149-1.984c-0.113-0.195-0.179-0.442-0.357-0.58
		c-0.807,0.296-1.679,0.607-2.551,0.646c-1.466,0.021-2.688-0.858-3.68-1.538c-1.205-1.242-2.489-3.43-2.153-5.603
		c0.172-1.067,0.817-2.118,2.201-1.93c0.889,0.117,2.091,0.77,2.2,1.658C206.952,341.501,206.046,342.218,205.517,342.75z"/>
	<path fill="#BC9B6A" d="M226.369,343.331c-0.233,0.224-0.61,0.319-0.628,0.539c-0.011,0.138,0.237,0.48,0.408,0.495
		c0.199,0.027,1.168-0.632,1.432-0.804c1.521-0.982,2.761-1.978,3.948-2.922c0.182-0.463,0.587-0.58,0.763-0.985
		c0.765-1.778-0.595-3.323-1.751-3.714c-0.56-0.199-1.281-0.282-2.016-0.234c-2.438,0.179-4.236,1.851-5.743,3.413
		c-1.219,1.264-2.331,3.049-2.51,5.115c-0.062,0.728-0.034,1.373,0.134,2.019c0.401,1.483,1.178,2.544,2.242,3.536
		c0.793,0.745,1.695,1.445,2.691,1.703c1.538,0.401,2.698-0.097,3.77-0.666c0.666-0.598,1.765-1.442,2.558-2.153
		c0.223-0.216,0.738-0.572,0.759-0.807c0.017-0.233-0.247-0.412-0.312-0.583c-0.91,0.378-2.005,0.71-3.183,0.583
		c-1.703-0.195-3.131-1.373-4.041-2.643c-0.972-1.388-1.404-3.327-1.026-5.082c0.392-0.631,0.707-1.184,1.477-1.29
		c1.088-0.145,2.681,0.762,2.78,1.658C228.258,341.724,227.049,342.709,226.369,343.331z"/>
	<path fill="#BC9B6A" d="M246.096,338.453c-0.068-0.265-0.309-0.687-0.483-1.044c-0.351-0.666-0.899-1.781-1.796-1.562
		c-0.831,0.192-1.647,1.177-2.334,1.795c-0.821,0.729-1.518,1.442-2.246,1.93c0.007-1.164-0.092-2.193-0.309-3.275
		c-0.158-0.065-0.405-0.426-0.673-0.497c-0.811-0.224-1.335,0.531-1.882,0.893c-0.906,0.607-1.702,1.153-2.602,1.761
		c-0.344,0.22-1.216,0.68-1.257,0.931c-0.041,0.261,0.265,0.518,0.315,0.676c0.402-0.15,0.763-0.347,1.384-0.274
		c0.196,0.175,0.36,0.371,0.45,0.591c0.474,1.188,0.474,3.048,0.632,4.436c0.271,2.454-0.104,4.679,0.13,6.732
		c1.089-0.636,1.964-1.261,3.008-1.975c0.24-0.165,0.858-0.48,0.94-0.762c0.072-0.24-0.041-0.57-0.045-0.814
		c-0.007-0.655,0.045-1.19,0.045-1.877c0.007-1.003-0.103-2.119,0-3.231c0.097-0.972,0.398-2.585,1.167-2.825
		c0.687-0.22,1.185,0.292,1.524,0.763c0.302,0.419,0.457,0.988,0.536,1.387c1.05-0.546,1.815-1.394,2.787-2.108
		c0.295-0.22,0.797-0.501,0.845-0.803C246.265,339.105,246.172,338.672,246.096,338.453z"/>
	<path fill="#BC9B6A" d="M256.729,343.06c-0.731-0.68-1.669-0.735-2.784-1.023c-1.479-0.398-2.809-0.734-3.674-1.758
		c-0.498-0.576-0.487-1.239,0.357-1.387c1.036-0.172,2.114,0.274,2.691,0.635c0.329,0.385,0.611,0.817,0.896,1.25
		c0.602-0.401,1.254-0.625,1.885-1.123c0.453-0.35,1.363-0.995,1.346-1.702c-0.014-0.509-0.7-1.168-1.122-1.528
		c-0.947-0.807-2.64-0.635-3.767-0.127c-1.05,0.467-2.231,1.271-3.453,2.238c-1.146,0.913-2.349,1.813-2.603,3.142
		c-0.165,0.886,0.24,1.744,0.944,2.283c1.301,0.985,3.738,0.985,5.16,1.565c0.961,0.405,2.162,1.641,1.609,2.743
		c-2.152,0.646-4.535-0.186-4.527-2.521c-0.543,0.203-1.03,0.622-1.569,0.951c-0.508,0.296-1.116,0.646-1.477,1.033
		c-0.718,0.745-0.546,1.796,0.086,2.593c1.212,1.537,4.179,1.414,5.829,0.453c1.113-0.845,2.836-2.122,4.038-3.454
		c0.48-0.528,1.036-1.391,1.119-2.19C257.823,344.025,257.254,343.561,256.729,343.06z"/>
	<path fill="#BC9B6A" d="M106.476,338.94c0.525-0.632,1.121-1.174,1.701-1.744c0.592-0.583,1.291-1.057,1.75-1.761
		c-1.456-0.072-3.104,0.233-4.439,0c0.074-1.521,0.237-2.709,0.228-4.164c-1.166,0.583-2.225,1.256-3.23,1.97
		c-0.29,0.213-0.932,0.491-1.075,0.77c-0.221,0.439,0.129,1.044-0.178,1.565c-0.33,0.103-0.577-0.213-0.944-0.271
		c-0.542-0.086-1.269,0.169-1.927,0.183c-0.807,0.023-1.574-0.042-2.285-0.138c0.021-0.913,0.173-2.485,0.223-3.584
		c0.005-0.186,0.112-0.509-0.135-0.587c-1.402,0.923-2.875,1.761-4.212,2.736c-0.132,0.397,0.12,1.317-0.225,1.62
		c-0.324,0.017-0.474-0.12-0.809-0.1c-0.788,1.232-1.828,2.211-2.556,3.505c0.889,0.227,2.513-0.292,3.225,0.048
		c-0.038,0.426-0.007,0.776-0.041,1.291c-0.026,0.392-0.139,0.735-0.134,1.133c0.017,2.485-0.146,6.05,0.807,8.377
		c0.439,0.601,1.006,1.185,1.885,0.899c1.478-0.494,3.325-1.765,4.3-2.554c-0.067-0.262-0.204-0.46-0.355-0.632
		c-1.937,0.453-2.18-1.737-2.246-3.049c-0.091-1.991,0.026-4.271,0.091-5.562c0.585,0.048,1.112,0.014,1.435-0.179
		c0.587-0.92,1.426-1.593,2.238-2.29c-0.46,0.94-1.359,1.686-1.742,2.564c1.028,0.255,2.01-0.22,3.229,0
		c-0.079,0.412,0.022,0.976-0.048,1.432c-0.019,0.104-0.125,0.224-0.136,0.303c-0.029,0.36,0.043,0.741,0.046,1.136
		c0,1.154-0.101,2.473,0,3.626c0.093,1.077-0.01,2.602,0.402,3.628c0.151,0.385,0.525,0.745,0.676,1.164
		c0.571,0.632,1.375,0.584,2.19,0.227c0.59-0.247,1.253-0.683,1.888-1.078c0.659-0.401,1.325-0.81,1.748-1.205
		c-0.046-0.295-0.165-0.524-0.355-0.669c-0.524,0.059-0.874-0.021-1.3-0.145c-0.674-0.61-0.954-2.073-0.946-3.22
		c0.012-1.604,0.026-3.522,0.088-5.198C105.644,338.919,106.078,338.947,106.476,338.94z"/>
	<path fill="#BC9B6A" d="M89.553,308.09c0.175,0.797,0.29,1.669,0.669,2.417c0.348,0.693,1.124,1.545,2.108,1.486
		c1.684-0.109,1.143-2.036,0.897-3.457c-0.441-2.567-1.054-4.861-1.433-7.312c-0.266-1.683-0.393-3.262-0.63-4.8
		c-0.237-1.523-0.484-3.062-0.538-4.703c-0.025-0.865,0.088-1.504-0.628-1.833c-0.232-0.106-0.604-0.014-0.944-0.093
		c-0.314-0.075-0.359-0.247-0.628-0.23c-0.542,0.038-0.848,0.179-1.159,0.632c-0.24,1.638-0.117,3.571,0.084,5.287
		c0.196,1.62,0.358,3.265,0.671,4.985C88.5,303.037,89.038,305.811,89.553,308.09z"/>
	<path fill="#BC9B6A" d="M158.569,312.172c1.042-0.217,1.876-0.958,2.338-1.617c0.546,0.45,1.071,0.927,1.705,1.301
		c0.113,0.079,0.009,0.368,0.222,0.361c0.674-0.062,1.44,0.116,2.106,0c0.865-0.162,1.569-0.824,2.108-1.346
		c1.148-1.103,1.668-2.733,1.795-4.845c0.016-0.223,0.016-0.422,0-0.628c-0.068-0.855-0.075-1.706-0.18-2.596
		c-0.247-2.156-0.51-4.137-0.896-6.323c-0.213-1.216-0.596-2.465-0.854-3.989c-0.22-1.359-0.345-3.454-0.895-3.996
		c-0.213-0.213-0.685-0.262-1.078-0.22c-0.35,0.24-0.333,0.687-0.669,1.067c-0.285,0.333-0.742,0.395-0.944,0.766
		c-0.131,0.24-0.223,0.741-0.223,1.078c0.003,1.071,0.338,2.279,0.583,3.543c0.443,2.259,0.888,4.878,1.212,7.442
		c0.204,1.642,0.455,3.09,0.177,4.659c-0.168,0.968-1.128,1.774-1.658,0.766c-1.15-2.637-1.253-6.393-1.613-9.506
		c-0.196-1.707-0.299-3.382-0.45-5.03c-0.053-0.576-0.032-1.242-0.132-1.833c-0.125-0.676-0.577-1.799-1.125-2.019
		c-0.52-0.206-1.581,0.124-1.922,0.45c-0.69,0.655-0.659,1.727-0.542,2.832c0.158,1.524,0.326,3.145,0.496,4.837
		c0.209,2.2,0.35,4.46,0.579,6.32c0.093,0.766,0.281,1.683,0.135,2.286c-0.075,0.323-0.092,0.296-0.092,0.488
		c0,0.411-0.1,0.658-0.088,0.988c-0.33,0.838-0.918,0.77-2.063,0.77c-1.9,0.006-3.826,0.01-5.29,0c-0.439,0-0.938,0.048-1.301-0.09
		c-0.508-0.192-0.893-0.906-0.983-1.26c0.416-0.233,1.043-0.58,1.299-1.026c0.551-0.972-0.027-2.218-0.675-2.562
		c-0.453-0.233-1.237-0.186-1.792-0.268c-1.526-0.209-2.612-0.604-3.72-1.291c-1.335-0.838-2.724-2.005-3.634-3.192
		c-0.266-0.344-0.536-0.869-0.85-1.388c-0.297-0.494-0.615-1.084-0.893-1.394c-1.061-1.133-2.904-0.075-2.963,1.212
		c-0.027,0.536,0.209,0.944,0.137,1.438c1.394,2.966,3.727,4.995,6.137,6.948c-0.618,0.704-1.303,1.483-2.104,2.02
		c-1.184,0.789-2.352,0.779-3.898,0.762c-4.868-0.048-22.051-0.041-26.567-0.041c-1.958,0-3.92,0.093-5.604-0.138
		c0.326-4.833-0.68-9.564-5.019-10.45c-0.228,0,0.108,0.316-0.139,0.316c-1.212-0.319-2.54-0.21-3.227,0.494
		c-0.685,0.838-1.188,1.878-1.296,3.179c-0.386,4.515,2.542,7.566,5.332,9.235c-0.331,1.099-1.938,1.589-2.147,2.688
		c-0.13,0.649,0.209,0.935,0.536,1.26c0.417,0.405,0.714,0.681,1.348,0.718c2.036,0.147,3.069-2.29,3.898-3.357
		c3.581,0.179,7.229,0.011,11.388,0.086c2.022,0.041,17.16,0.093,19.478,0.048c1.742-0.045,3.771,0.179,5.155-0.178
		c1.554-0.412,2.508-1.202,3.545-2.156c0.851-0.779,1.701-1.538,2.777-1.978c0.453,1.518,1.378,3.076,2.781,3.865
		c0.261,0.141,0.88,0.446,1.124,0.491c0.433,0.075,1.062,0,1.569,0c1.443-0.024,2.977,0.031,4.619,0
		C156.652,312.148,157.766,312.333,158.569,312.172z M98.023,303.476c-0.371-0.899-0.655-1.661,0.318-2.073
		c0.472,0.068,0.97,0.508,1.164,0.988c0.45,1.123,0.925,2.62,0.805,4.031C99.435,305.866,98.533,304.692,98.023,303.476z"/>
	<path fill="#BC9B6A" d="M222.617,314.95c0.848-0.141,1.435-1.092,1.126-2.238c0.824-0.147,1.466,0.1,2.242,0.082
		c2.073-0.034,3.741-0.391,5.376-1.022c0.405-0.162,0.841-0.433,1.078-0.416c0.206,0.024,0.639,0.351,0.854,0.505
		c0.271,0.192,0.512,0.46,0.807,0.528c0.426,0.11,1.119,0.015,1.658,0c0.553-0.007,1.119-0.007,1.61,0
		c2.087,0.052,4.1-0.007,6.461,0.049c1.105,0.027,3.049,0.22,3.9-0.176c0.838-0.388,1.51-1.222,2.197-1.795
		c0.549,0.374,0.851,0.882,1.435,1.305c0.94,0.662,2.479,0.968,3.681,0.535c1.314-0.48,1.915-2.448,2.148-4.078
		c0.041-0.282,0.09-0.67,0.09-0.896c-0.011-2.046-0.693-4.46-1.524-5.881c-0.45-0.766-0.985-1.514-1.662-2.101
		c-1.26-1.109-3.92-1.778-5.469-0.68c-0.487-0.351-0.8-0.876-1.658-0.708c-0.261,0.045-0.646,0.333-0.852,0.484
		c-0.604,0.457-0.789,1.13-0.631,2.063c0.404,2.32,3.24,5.521,1.304,7.889c-4.71,0.093-7.35-0.021-12.063,0
		c-0.356-0.614-0.165-1.332-0.268-1.922c-0.062-0.33-0.274-0.811-0.357-1.123c-0.206-0.741-0.483-1.178-0.769-1.706
		c-0.82-1.541-1.812-2.938-2.86-4.12c-0.542-0.261-1.071-0.769-1.847-0.899c-0.789-0.13-1.692,0.069-2.372,0.042
		c-0.24-1.662-0.484-3.303-0.858-4.972c-0.357-1.661-0.67-3.323-1.432-4.621c-1.514-0.728-2.575,0.028-2.732,1.483
		c-0.113,1.01,0.233,1.919,0.404,2.911c0.306,1.744,0.595,3.64,0.982,5.38c0.209,0.944,0.457,1.953,0.498,2.78
		c0.014,0.326-0.729,1.329-0.899,1.61c-0.982,1.642-1.587,3.269-2.331,5.074c-5.73,0-26.665,0.034-32.79-0.048
		c-1.559-0.021-3.186,0.274-3.772-0.543c-0.484-1.521-0.697-4.03-2.599-3.899c-1.123,0.082-1.47,1.009-1.751,1.974
		c-0.573,1.995-1.477,4.35-2.596,6.101c-0.508,0.776-1.325,1.287-1.662,1.93c-0.432,0.82-0.068,1.864,0.271,2.376
		c0.673,0.528,1.734,0.673,2.462,0.274c1.716-0.958,2.729-3.88,3.68-5.521c0.498,0.343,0.992,0.625,1.524,0.94
		c0.192,0.113,0.375,0.31,0.536,0.36c0.24,0.072,0.639,0.093,0.944,0.086c2.64-0.065,17.748-0.041,20.643,0
		c4.655,0.069,10.396-0.086,15.243,0.041C220.52,313.494,220.925,315.231,222.617,314.95z M251.184,301.945
		c1.137,0.36,1.572,1.47,2.016,2.692c0.367,0.995,0.611,2.54,0.227,3.718c-0.635-0.388-1.191-1.325-1.617-2.283
		c-0.467-1.067-0.961-2.252-0.852-3.447C250.978,302.377,251.043,302.117,251.184,301.945z M224.502,307.109
		c0.322,0.775,0.759,1.641,1.795,1.606c1.014-0.034,1.902-1.271,1.748-2.465c-0.145-1.16-0.494-2.455-0.584-3.406
		c0.646-0.171,1.119,0.577,1.395,1.078c0.676,0.68,1.095,1.628,1.565,2.685c0.106,0.233,0.48,0.729,0.449,0.941
		c-0.065,0.433-1.541,0.851-2.063,0.985c-1.538,0.388-3.371,0.347-4.937-0.135C224.076,307.957,224.186,307.431,224.502,307.109z"/>
	<path fill="#BC9B6A" d="M76.278,310.689c1.514,0.69,3.433,1.665,5.423,1.438c1.299-0.154,2.835-1.026,3.184-2.107
		c0.453-1.401-0.349-2.695-0.76-3.543c-0.102-0.203-0.189-0.508-0.314-0.77c-0.367-0.741-0.293-0.83,0-1.518
		c0.826-1.936,0.268-4.683-1.483-5.472c-0.998-0.423-2.334-0.371-3.63-0.271c-0.395,0.031-0.929,0.175-1.251,0.089
		c-0.25-0.068-0.523-0.583-0.766-0.851c-0.271-0.306-0.525-0.608-0.76-0.849c-0.205-0.213-0.819-0.717-1.03-0.81
		c-1.312-0.553-2.379,0.624-2.333,1.751c0.038,0.971,0.925,1.572,1.258,2.282c-1.241,1.182-3.052,2.551-2.963,4.934
		c0.026,0.707,0.259,1.181,0.4,1.84c0.247,0.296,0.632,0.694,0.676,1.03c-3.023,0.082-7.203-0.052-10.989-0.052
		c-2.418,0.004-5.359,0.052-9.187,0c-0.536,0-1.11,0.072-1.437-0.037c-0.688-0.241-0.829-1.271-1.03-1.975
		c-0.312-1.074-0.685-2.42-2.065-2.42c-1.673,0.007-1.735,1.751-2.106,3.011c-0.091,0.302-0.249,0.59-0.357,0.893
		c-0.649,1.781-1.518,3.711-2.558,4.975c-0.407,0.501-1.123,0.988-1.257,1.524c-0.401,1.631,1.118,3.014,2.738,2.331
		c0.361-0.154,0.951-0.697,1.255-1.078c1.071-1.325,1.821-3.121,2.599-4.528c0.312,0.103,0.534,0.426,0.856,0.628
		c0.287,0.183,1.025,0.656,1.298,0.721c0.281,0.062,0.846,0,1.256,0c4.406-0.003,10.152,0.094,14.975,0.042
		c1.979-0.024,4.367,0.202,5.963,0C73.429,311.702,74.952,311.135,76.278,310.689z M80.987,308.492
		c-0.178,0.086-0.601,0.072-0.674-0.093C80.429,308.122,81.006,308.015,80.987,308.492z M76.146,302.93
		c0.23-0.072,1.066,0.834,1.212,0.992c0.367,0.398,0.588,0.756,0.889,1.119c-0.577,0.516-1.219,0.985-1.923,1.381
		c-0.293-0.248-0.613-0.337-0.899-0.536c-0.393-0.268-0.951-0.607-0.85-1.339C74.662,303.922,75.53,303.129,76.146,302.93z"/>
	<path fill="#BC9B6A" d="M144.226,312.752c-1.739,0.213-2.597,2.009-1.885,3.502c0.167,0.34,0.695,0.906,1.032,1.074
		c1.394,0.673,3.172-0.188,3.411-1.397c0.168-0.864-0.074-1.647-0.316-2.06C146.025,313.126,145.273,312.622,144.226,312.752z"/>
</g>
</svg>
