<?xml version="1.0" encoding="utf-8"?>
<!-- Generator: Adobe Illustrator 24.1.3, SVG Export Plug-In . SVG Version: 6.00 Build 0)  -->
<svg version="1.1" id="Layer_1" xmlns="http://www.w3.org/2000/svg" xmlns:xlink="http://www.w3.org/1999/xlink" x="0px" y="0px"
	 viewBox="0 0 329.2 372.4" style="enable-background:new 0 0 329.2 372.4;" xml:space="preserve">
<style type="text/css">
	.st0{fill:#BC9B6A;}
</style>
<path class="st0" d="M309,279.2c-3.9-2.1-8-3.8-12.3-5.2c-3.1-1-6.2-1.8-9.4-2.4c-2.4-0.4-4.7-1-7.1-1.2c-4.5-0.4-9.1-0.5-13.7-0.8
	c-0.4,0-0.8,0-1.2-0.1c-2.7-0.2-5.3-0.5-8-0.6c-4-0.3-7.9-0.4-11.9-0.8c-3-0.3-6-0.8-9-1.2c-2-0.3-4.1-0.6-6.1-0.9
	c-1.5-0.2-3-0.5-4.5-0.8c-2.5-0.6-4.8-1.6-6.9-3.2c-3.4-2.8-6.1-6.2-8.7-9.7c-0.1-0.2-0.2-0.4-0.3-0.6c0.2-0.5,0.4-1,0.7-1.5
	c0.4-0.8,0.8-1.5,1.2-2.3c2.7-5.6,3.9-11.6,4.1-17.9c0.1-3.1-0.1-6.2-0.1-9.3c-0.1-4.8-0.8-9.5-2.4-14c-1.1-2.9-2.4-5.8-3.5-8.7
	c-1.4-3.7-3.2-7.2-5.4-10.4c-0.5-0.7-1-1.4-1.5-2.2c-2.5-4.1-5.7-7.6-8.9-11.2c-1.1-1.3-2.2-2.5-3.3-3.8c-1.2-1.4-2.4-2.8-3.7-4.2
	c-2-2.1-4.1-4.2-6.2-6.4c-0.3-0.3-0.5-0.8-0.6-1.3c-0.2-2.2-0.3-4.3-0.4-6.5c-0.1-2.4-0.2-4.8-0.4-7.2c-0.4-4.3-0.7-8.6-1.2-12.9
	c-0.4-4.1-1-8.3-1.5-12.4c-0.4-3.3-0.9-6.6-1.5-9.9c-0.7-3.9-1.4-7.8-2.6-11.6c-0.5-1.7-1-3.4-1.4-5.1c-0.3-1.2-0.6-2.5-1-3.7
	c-0.9-2.9-2-5.8-2.9-8.7c-0.8-2.6-1.9-4.9-3.1-7.3c-0.1-0.3-0.3-0.5-0.5-0.8c-0.1,0.2-0.2,0.3-0.3,0.4c-1.1,2.8-2,5.6-2.7,8.5
	c-0.2,0.7,0,1.2,0.3,1.7c1.5,2.2,2.4,4.6,3.3,7c0.7,2,1.1,4,1.8,6c2,6.4,3.7,12.9,5,19.5c0.6,3,1,6.1,1.6,9.1c0.1,0.6-0.1,1-0.5,1.4
	c-0.7,0.6-1.4,1.3-2.2,1.9c-2,1.6-4,3.1-6,4.8c-1.9,1.6-3.6,3.4-4.9,5.5c-1.5,2.4-2.5,5.1-3.2,8c-0.1-0.2-0.1-0.4-0.1-0.5
	c-0.2-1.8-0.3-3.6-0.6-5.3c-1.1-6.5-2.1-13-3.3-19.5c-0.6-3.2-1.6-6.4-2.8-9.4c-0.4-0.9-0.7-1.8-1-2.7c-0.8-2.9-2-5.6-3.2-8.3
	c-0.2-0.3-0.3-0.8-0.9-0.6c-0.1,0.2-0.2,0.5-0.3,0.8c-0.6,2-1.2,4.1-1.9,6c-0.5,1.5-0.3,2.8,0.4,4.1c0.8,1.5,1.5,3.1,2.2,4.8
	c0.5,1.2,0.9,2.4,1.3,3.6c0.9,2.8,1.8,5.6,2.5,8.5c0.6,2.6,1,5.3,1.4,8c0.2,1.3,0.5,2.6,0.8,4c-0.7,0.6-1.4,1.3-2.1,1.8
	c-2.3,1.8-4.5,3.6-6.4,5.7c-2.1,2.3-4.1,4.5-5.3,7.4c-0.6,1.5-1.2,3.1-1.7,4.7c-0.1,0.3-0.3,0.7-0.4,1c-0.1,0-0.1,0-0.2-0.1
	c0-0.4,0-0.8-0.1-1.3c-0.1-2.2-0.1-4.3-0.2-6.5c-0.2-3.2-0.5-6.3-0.9-9.5c-0.2-1.4-0.6-2.8-0.8-4.3c-0.7-5.3-2.1-10.4-4-15.4
	c-0.1-0.3-0.4-0.4-0.7-0.8c-0.2,0.5-0.3,0.8-0.4,1.1c-0.7,2.3-1.3,4.6-2,7c-0.2,0.7-0.2,1.3,0,1.9c0.9,3.1,1.9,6.2,2.7,9.3
	c1.2,4.8,1.7,9.7,2.2,14.6c0,0.3-0.1,0.7-0.2,0.9c-0.2,0.4-0.6,0.7-0.9,1c-1.5,1.9-3,3.9-4.4,5.8c-1.7,2.4-2.5,5.2-3.7,7.8
	c-1,2.2-0.6,4,0.9,5.7c0.9,1.1,1.9,2,2.8,3c0.2,0.2,0.4,0.4,0.6,0.6c0,0.1-0.1,0.1-0.1,0.2c-0.6-0.2-1.2-0.3-1.8-0.5
	c-3.2-1.2-6.5-2.1-9.9-2.8c-2.9-0.5-5.7-1.1-8.6-1.7c-2-0.4-4-0.9-5.9-1c-3-0.2-6-0.3-9-0.3c-3.8,0.1-7.6,0.4-11.3,0.6
	c-1.5,0.1-2.9,0.2-4.4,0.4c-1.3,0.2-2.5,0.5-3.8,0.7c-3.8,0.6-7.4,1.8-11,3.1c-5.3,1.9-10.2,4.7-14.9,7.8
	c-4.2,2.8-7.9,6.1-10.4,10.5c0,0-0.1,0.1-0.1,0.1c-1.9,3-3.3,6.1-4.2,9.5c-1.1,4.4-1.5,8.9-0.7,13.5c0.7,4.1,1.8,8.1,4.1,11.7
	c1.5,2.4,3.4,4.6,5.3,6.7c0.3,0.3,0.5,0.6,0.9,0.9c-0.4,0.2-0.7,0.4-1,0.5c-2.9,1.3-5.8,2.7-8.7,4c-1.5,0.7-3,1.3-4.5,2
	c-1.2,0.6-2.5,1.2-3.6,1.9c-1.4,1-2.7,2.2-4,3.4c-0.3,0.3-0.5,0.6-0.8,0.8c0,0.1,0.1,0.1,0.1,0.2c8.2-3.7,16.2-7.6,25-10.2
	c0.5,0.4,1,0.8,1.5,1.2c4.9,4.6,10.3,8.4,16.1,11.8c4.3,2.6,8.9,4.7,13.6,6.4c3.7,1.4,7.5,2.3,11.4,3.1c5.1,1.1,10.3,1.2,15.4,0.7
	c3.8-0.3,7.6-0.9,11.3-1.8c2.3-0.6,4.6-1.1,6.7-2.3c1.1-0.6,2.2-1.2,3.3-1.9c0.8-0.5,1.6-1,2.4-1.6c2.3-1.8,4.4-3.7,6.3-5.8
	c0.3-0.3,0.6-0.5,0.9-0.7c-1.1,1.8-2.3,3.5-3.4,5.2c-1.7,2.7-3.6,5.1-5.7,7.4c-3.7,4-7.3,8.1-10.3,12.6c-1.4,2-2.5,4.1-3.2,6.5
	c-0.5,2-0.9,4.1-1.4,6.1c-0.7,2.6-0.6,5.3,0,7.9c0.9,3.9,2.5,7.6,4.9,10.9c2.2,3.1,4.9,5.5,8.1,7.4c5,3,10.7,4.2,16.4,4.9
	c2.8,0.4,5.6,0.3,8.4,0.4c4.2,0.1,8.3-0.4,12.4-1.4c2.9-0.7,5.3-2.3,7.6-4.1c2.6-2,4.5-4.4,5.8-7.3c0.6-1.3,1-2.6,1-4
	c0-1.1,0.2-2.2,0.3-3.4c0.8,0,1.5-0.3,2.2,0.1c0,0.7,0,1.4,0,2.1c0.2,2.9,1.9,5.1,4.5,5.4c1.4,0.2,2.9,0.2,4.3,0
	c5.1-0.9,9.8-2.9,13.9-6.1c3-2.3,5.6-5,7.1-8.5c0.4-0.8,1.1-1.4,1.9-1.8c1.5,1.7,3.2,3.2,5.2,4.3c2,1.1,4.2,1.8,6.5,2.3
	c0.4-0.4,0.7-0.8,1-1.2c0.7-1.2,1.5-2.4,2.2-3.6c0.3-0.5,0.6-1.1,0.6-1.7c0.1-1.2,0.2-2.3,0.2-3.5c-0.1-2.5-0.9-4.7-2.2-6.7
	c-1.3-2.2-3.7-3.1-6.1-1.5c-1.2,0.8-2.3,1.9-3.1,3.2c-0.3,0.5-0.6,0.9-0.9,1.4c-0.2-0.5-0.4-0.8-0.6-1.2c-1.4,1.2-2.4,2.5-3.1,4.1
	c-1.1,2.3-2.6,4.1-4.6,5.6c-4.2,3.2-8.6,5.9-13.7,7.4c-1.8,0.5-3.6,0.9-5.4,0.7c-1.4-0.1-2.4-0.8-3.5-1.9c0.6-0.2,1-0.4,1.5-0.6
	c1.5-0.5,3-0.9,4.4-1.5c4.9-2.1,9.5-4.7,13.9-7.6c2-1.3,3.6-2.9,4.8-5.1c1.1-2.1,1.7-4.4,2.3-6.7c0.5-1.8,0.1-3.4-1.6-4.5
	c-0.9-0.5-1.7-1.1-2.6-1.6c-3-1.4-6-1.4-8.8,0.5c-0.5,0.3-1,0.7-1.4,1.1c-2.4,2.4-4.7,4.7-7.1,7.1c-0.2,0.2-0.4,0.5-0.6,0.8
	l-0.3-0.2c0.2-0.6,0.4-1.2,0.6-1.8c1-3.2,1.2-6.5,1.2-9.9c0-3.4-0.2-6.8-0.3-10.2c-0.1-2.7-0.1-5.4-0.3-8.2c0-0.9-0.2-1.7-0.3-2.6
	c0.4,0.2,0.8,0.5,1,0.9c2.2,2.8,4.5,5.5,6.7,8.3c2,2.5,3.9,5,6.4,6.8c0.3,0.2,0.6,0.4,1,0.7c-0.2,0.6-0.4,1-0.6,1.4
	c-0.4,0.7-0.9,1.4-1.3,2.2c-0.2,0.5-0.5,1-0.3,1.6c1.5-0.9,2.2-2.6,3.4-3.7c3,2.3,6.2,4.1,9.8,5.2c4.1,1.2,8.3,1.7,12.5,2.2
	c3.9,0.5,7.8,0.6,11.7,0.9c1.3,0.1,2.6,0.1,4,0.2c3.8,0.3,7.5,0.7,11.3,1c1.3,0.1,2.6,0.1,4,0.3c2.6,0.3,5.3,0.6,7.9,0.8
	c3.6,0.2,7.1,0.8,10.6,1.6c4.8,1.1,9.3,3,13.5,5.7c0.7,0.5,1.4,0.6,2.1,0.4c1.7-0.3,3.4-0.6,5.1-0.9c0.8-0.1,1.6-0.2,2.4-0.3
	c0.1-0.5-0.2-0.7-0.5-0.9c-2.5-1.6-5.1-2.9-7.8-4c-3.7-1.5-7.6-2.2-11.5-2.8c-4.4-0.7-8.9-1.1-13.3-1.7c-2-0.2-4-0.4-6-0.6
	c-3.4-0.4-6.9-0.8-10.3-1.2c-4.9-0.5-9.8-0.9-14.7-1.4c-2.9-0.3-5.7-0.8-8.6-1.2c-3.7-0.5-7.1-1.8-10.3-3.7
	c-2.5-1.4-4.8-3.3-6.8-5.3c-0.2-0.2-0.4-0.6-0.7-0.9c0.5-0.7,1-1.3,1.4-1.9c2.1,1.6,3.9,3.2,6,4.6c2.5,1.6,5.2,2.8,8.1,3.8
	c2.4,0.9,4.9,1.2,7.5,1.6c3.6,0.6,7.3,1,10.9,1.3c2.5,0.2,5,0.4,7.6,0.6c3.4,0.3,6.8,0.6,10.2,0.8c2.2,0.2,4.5,0.3,6.7,0.5
	c1.6,0.1,3.1,0.2,4.7,0.4c2.6,0.3,5.3,0.4,7.9,0.9c5.4,1,10.7,2.1,15.9,3.8c2.5,0.8,5,1.6,7.2,3.1c1.1,0.7,2.3,1.4,3.4,2.2
	c0.7,0.5,1.3,0.7,2.1,0.6c0.4,0,0.9-0.1,1.3-0.2c1.6-0.3,3.2-0.6,4.9-1c0.7-0.2,1.5-0.4,2.3-0.7C311.5,280.6,310.3,279.8,309,279.2z
	 M213.7,287.5c1.3,0.7,2.3,2.2,2.7,4.3c-2.3-0.8-4.1-2.1-5.7-3.8C211.6,287.1,212.6,286.9,213.7,287.5z M178.5,225.3v4.4
	c-1.2-1.3-2.4-2.4-3.5-3.7c-1.8-2.2-3.9-4-6.1-5.8c-2.1-1.8-4.2-3.6-6.5-5c-0.9-0.6-1.4-1.3-1.4-2.5c0-1.3-0.3-2.5-0.3-3.9
	c0.8,0.7,1.7,1.3,2.4,2.1c1.4,1.4,2.8,2.8,4.3,4.2c1.6,1.4,3.3,2.7,4.9,4.2c1.8,1.6,3.5,3.3,5.2,4.9
	C177.8,224.5,178.1,224.9,178.5,225.3z M160.2,200.2c-0.4-0.3-0.6-0.7-0.6-1.2c-0.3-3.2-0.7-6.4-1-9.6c-0.1-0.9,0-1.9,0-3
	c2.2,2.1,4.3,4,6.3,6c1.3,1.3,2.6,2.7,3.9,4c0.5,0.5,0.8,1.2,1.2,1.8c0.9,1.4,1.9,2.9,2.8,4.4c1.9,3.4,3.7,6.8,4.5,10.7
	c0.1,0.3,0.1,0.7,0,1.1c-0.3-0.2-0.6-0.4-0.8-0.7c-1.8-2.4-4.2-4.2-6.6-6c-2.9-2.2-5.9-4.4-8.8-6.6
	C160.8,200.7,160.5,200.4,160.2,200.2z M161.7,139.8c2.6-2.3,5.3-4.5,7.9-6.7c0.8-0.7,1.5-1.5,1.9-2.5c0.5-1.2,1-2.4,1.5-3.6
	c0.1,0,0.1,0,0.2,0c0.3,2.3,0.6,4.7,0.9,7.1c0.3,2.4,0.6,4.8,0.9,7.2c0.3,2.4,0.5,4.7,0.7,7.1c0.2,2.4,0.3,4.8,0.5,7.2
	c-0.1,0-0.2,0.1-0.3,0.1c-1.1-0.9-2.2-1.7-3.2-2.6c-3.3-2.7-6.7-5.5-10-8.2c-1.1-0.9-2-1.9-2.8-3.3C160.5,141,161,140.3,161.7,139.8
	z M156.5,147.9c0.2,0.2,0.3,0.3,0.4,0.4c1.2,1.8,2.7,3.2,4.4,4.5c1.6,1.3,3.1,2.8,4.7,4.2c1.8,1.5,3.6,2.9,5.4,4.4
	c1.6,1.3,3.1,2.6,4.6,4c0.5,0.4,0.7,0.9,0.7,1.6c0,1.5,0.2,3.1,0.2,4.6c0.1,2.5,0.1,5.1,0.2,7.6c0.2,3.4,0.5,6.9,0.6,10.3
	c0.1,2.7,0,5.4,0,8.2c-0.4-0.6-0.7-1.1-1-1.6c-1.7-2.9-4-5.3-6.4-7.6c-1.3-1.4-2.7-2.7-3.9-4.1c-2.4-2.8-5.2-5.3-7.9-7.9
	c-0.6-0.6-0.9-1.2-0.9-2.1c0-1.8-0.1-3.5-0.2-5.3c0-5.1-0.2-10.3-0.7-15.4c-0.1-1.6-0.3-3.1-0.4-4.7
	C156.5,148.7,156.5,148.4,156.5,147.9z M155.5,207.6c-1.4-1.7-2.3-3.5-3.5-5.1c0.1-0.1,0.1-0.1,0.2-0.2c1,0.9,2.1,1.9,3.1,2.8
	C155.7,205.6,155.7,206.3,155.5,207.6z M139.6,155.3c1.6-1.6,3.2-3.2,4.8-4.8c0.9-0.9,2-1.7,2.9-2.6c0.5-0.5,0.8-1.1,1.1-1.8
	c0.7-1.6,1.4-3.3,2.1-4.9c0.1,0,0.2,0,0.3,0c0.2,0.6,0.4,1.2,0.6,1.9c0.3,1.8,0.6,3.6,0.8,5.4c0.3,2.9,0.6,5.7,0.8,8.6
	c0.3,3.3,0.6,6.5,0.8,9.8c0.1,1.7,0.2,3.5,0.3,5.2c-0.1,0-0.2,0.1-0.3,0.1c-0.4-0.4-0.8-0.8-1.2-1.3c-3.4-3.7-7.1-7.1-10.9-10.5
	c-0.5-0.5-1-0.9-1.6-1.4c-0.7-0.6-1.2-1.3-1.4-2.4C139,156.3,139.2,155.8,139.6,155.3z M134.8,162.8c0.1,0,0.1-0.1,0.2-0.1
	c0.2,0.3,0.4,0.6,0.6,0.9c0.6,0.8,1.3,1.6,2,2.3c2.4,2.3,4.7,4.6,7.1,6.9c2.6,2.5,5.3,5,7.9,7.4c0.1,0.1,0.3,0.3,0.4,0.4
	c1.1,0.7,1.5,1.7,1.5,3c0.1,3.9,0.3,7.7,0.5,11.6c0,0.2,0,0.4,0,0.8c-0.5-0.2-0.8-0.4-1.2-0.6c-3-1.9-6-3.8-8.9-5.9
	c-1.7-1.3-3-3-4.5-4.6c-1.3-1.4-2.5-2.9-3.9-4.3c-0.8-0.8-1.2-1.7-1.2-2.9c0-1.2-0.2-2.5-0.3-3.7c-0.2-2.7-0.3-5.4-0.4-8.1
	C134.8,164.9,134.8,163.9,134.8,162.8z M144.3,203.3c-2.9-1-5.5-2.6-8.3-3.9c-0.1-2.1-0.2-4.2-0.2-6.4c0.1,0,0.2-0.1,0.3-0.1
	C139.1,196,141.6,199.7,144.3,203.3z M132.4,203.2c0.7,9.1,1.5,18.2,1.8,27.3c-0.2,0-0.3,0-0.4-0.1c-1.7-1.2-3-2.6-3.6-4.7
	c-0.4-1.3-0.9-2.5-1.4-3.7c-0.1-0.2-0.4-0.3-0.7-0.5c-0.7,1.3-1.3,2.5-1.9,3.7c-0.5,0.9-0.4,1.9-0.1,2.9c0.6,1.6,1,3.3,1.5,4.9
	c0.4,1.2,0.3,2.4-0.1,3.7c-2,0.5-4.1,0.8-5.8-0.8c-1.7-1.5-3.4-3.2-5.1-4.7c-2.3-1.9-4.5-3.7-7-5.3c-1.8-1.2-4-1.5-6.2-1.5
	c-5.4,0-10.7,0.6-16,2c-0.5,0.1-1,0.2-1.5,0.3c-0.2,0-0.4,0-0.6,0c-0.4-0.5-0.8-1.1-1.2-1.7c-1.3-2.1-2.4-4.3-3.1-6.6
	c-0.5-1.6-0.6-3.3-0.5-4.9c0-1.3,0.2-2.5,0.4-3.8c0.2-2.3,1.4-4.2,2.8-6c0.7-0.8,1.4-1.7,2.1-2.5c0.4-0.5,0.9-1,1.5-1.3
	c4.7-3.1,9.9-4.8,15.6-4.6c4.9,0.1,9.8,0.7,14.5,2.1c2.5,0.7,4.9,1.5,7.3,2.5c2.3,0.9,4.6,1.9,6.9,2.9c0.2,0.1,0.4,0.2,0.6,0.3
	C132.2,203.1,132.3,203.2,132.4,203.2z M119,240.1c-1.2,0.4-2.5,0.5-3.8,0.5c-3.9,0-7.6-0.8-11.3-1.8c-5.4-1.5-10.2-4.3-14.6-7.8
	c-0.3-0.3-0.7-0.6-1-0.9c0-0.1,0.1-0.2,0.1-0.2c1.8-0.2,3.6-0.4,5.5-0.5c2.1,0,4.1,0,6.2,0.3c3,0.4,5.5,1.8,7.8,3.9
	c1.8,1.6,3.7,3.1,5.6,4.5C115.2,239.2,117,240.1,119,240.1z M125.6,168c0.5-0.7,1.1-1.4,1.7-2c0.8-0.8,1.4-1.8,1.7-2.9
	c0.4-1.3,0.8-2.5,1.2-3.8c0.1-0.2,0.2-0.4,0.2-0.6c0.1,0,0.1,0,0.2,0c0.5,5.5,0.3,11.1,0.5,16.6c-0.1,0-0.2,0.1-0.2,0.1
	c-0.7-0.6-1.5-1.1-2.2-1.8c-1.1-1.1-2.1-2.2-3.1-3.4C124.9,169.3,124.9,168.9,125.6,168z M47.7,235.9c-1.8-2.3-3.6-4.5-5.2-6.8
	c-2.3-3.3-3.5-7.1-4.2-11.1c-1-5.3-0.5-10.4,1.2-15.5c1.1-3.4,3.1-6.3,5.5-8.9c1.7-1.8,3.5-3.5,5.5-4.9c1.9-1.4,4-2.4,6-3.6
	c0.7-0.4,1.4-0.6,2.1-1c3.5-1.8,7.1-3,10.9-3.9c4.7-1.1,9.4-1.9,14.1-2.3c4.1-0.3,8.1-0.3,12.2,0.2c3.4,0.4,6.8,0.9,10.2,1.5
	c4.9,0.9,9.5,2.9,14.1,4.9c3.5,1.6,7.1,3.1,10.6,4.6c0.9,0.4,1.3,0.9,1.2,1.9c0,2,0.1,4,0.1,6c0,0.1,0,0.2-0.1,0.5
	c-0.4-0.1-0.7-0.2-1-0.3c-3.8-1.7-7.9-2.5-12-3.2c-1.6-0.3-3.2-0.7-4.8-0.9c-2.8-0.3-5.6-0.4-8.4-0.5c-1.7-0.1-3.4,0-5.1,0.1
	c-2.9,0.3-5.8,0.5-8.7,1.2c-3.9,0.9-7.7,2.3-11,4.7c-2,1.5-4.1,3-5.7,5c-2,2.5-3.4,5.2-3.9,8.4c-0.6,3.2-0.7,6.4,0.1,9.6
	c0.5,2.1,1.5,4.1,2.6,6c0.3,0.6,0.7,1.1,1.1,1.8c-0.5,0.2-0.8,0.3-1.2,0.4c-4.4,1.3-8.7,2.5-13.1,3.9c-2.9,0.9-5.7,2-8.5,3
	c-1,0.3-2,0.6-3,0.9C48.8,237.1,48.2,236.6,47.7,235.9z M128,253.3c-3.2,2.8-6.9,4.7-11,5.8c-3.3,0.9-6.7,1.6-10.2,2
	c-2.1,0.2-4.2,0-6.3,0.1c-3.7,0.2-7.2-1-10.8-1.8c-4.9-1-9.5-2.9-14-5c-2.7-1.3-5.5-2.5-8.1-4c-4.4-2.4-8.6-5-12.5-8.1
	c-0.6-0.5-1.3-1-1.9-1.5c-0.3-0.2-0.6-0.5-1-0.9c0.3-0.2,0.6-0.3,0.8-0.4c4.3-1.9,8.8-3.1,13.3-4.4c3.3-0.9,6.6-1.8,9.9-2.7
	c0.9-0.3,1.6-0.2,2.3,0.6c3.3,3.7,7.4,6.3,11.8,8.6c3,1.5,6.2,2.4,9.5,3c2.3,0.4,4.6,0.8,7,0.8c3.6,0,7.1-0.1,10.6-1.4
	c1.4-0.5,2.8-0.9,4.2-1.3c3.2-1.1,5.6-3.3,7.3-6.1c0.3-0.4,0.6-0.9,0.8-1.3c0.1-0.1,0.2-0.2,0.3-0.3c1.4,0.8,2.7,1.6,4.2,2.5
	c0,0.3,0.1,0.8,0.1,1.3c0,2.5,0,4.9,0,7.4c0,0.8-0.2,1.4-0.8,1.9C131.6,249.8,129.9,251.7,128,253.3z M130.7,257.2
	c1-2.1,2.3-4.1,3.6-6.1c0,1.3,0.1,2.5,0.1,3.8c0,2-0.1,3.9-0.2,5.9c-0.2,4.3-0.5,8.6-0.8,12.8c-0.1,1.4-0.2,2.9-0.3,4.3
	c0,0.3,0,0.6,0.1,0.9l0.2,0.1c0.2-0.3,0.4-0.6,0.6-0.9c1.8-5,3.2-10,3.3-15.3c0-0.6,0.1-1.2,0.2-1.8c0.1-2.2,0.2-4.4,0.2-6.6
	c0-4,0-8,0.1-12c0-1.5,0.1-3,0.2-4.5c0.7-0.2,1.4-0.3,2.1-0.5c0.7-0.2,1.4-0.1,2,0.3c0.7,0.4,1.5,0.8,2.2,1.2
	c2.1,1.1,4.2,2.2,6.3,3.3c2,1,3.3,0.6,4.6-1.3c1.1-1.7,1.6-3.6,2-5.5c0.2-1.2,0.4-2.5,0.3-3.7c0-1.9-1-3.5-2.3-4.9
	c-1.4-1.5-2.9-2.8-4.4-4.3c-0.8-0.8-1.6-1.8-2.4-2.6c0-0.1,0.1-0.1,0.1-0.2c0.8,0.1,1.6,0.2,2.5,0.2c-0.1-0.9-0.6-1.4-1.1-1.8
	c-1.9-1.5-3.8-3-5.7-4.5c-0.2-0.2-0.6-0.2-1-0.4c-0.3,1.8-0.7,3.5-0.9,5.2c-0.1,0.5,0.4,1.1,0.7,1.7c-0.3,0.4-0.7,0.9-1.2,1.4
	c-1.7,2-2.6,4.4-3.4,6.8c-0.3,1-0.2,2,0,3c0.1,0.3,0.1,0.5,0.2,0.9c-0.3,0-0.5-0.1-0.7-0.1c0-0.3-0.1-0.6-0.1-0.8
	c-0.2-4.2-0.3-8.3-0.6-12.5c-0.2-3.2-0.6-6.3-0.8-9.5c-0.1-1.3,0-2.6,0-4c0.5,0.2,1,0.4,1.4,0.6c4.4,2.2,8.3,5.2,12.3,8.1
	c1.3,1,2.6,1.8,3.9,2.8c1.1,0.8,2.1,1.7,3.2,2.6c0.3,0.3,0.6,0.8,0.6,1.2c0.2,2.3,0.3,4.5,0.4,6.8c0.1,3.5,0.2,7,0.3,10.5
	c0.1,4.2,0.3,8.3,0.4,12.5c0.1,3.7,0.1,7.4,0.4,11.1c0.2,2.3-0.8,4-2.3,5.6c-2.4,2.6-5.5,4.1-8.9,4.9c-0.9,0.2-1.8,0.4-2.6,0.6
	c-1,0.2-1.7,0.6-2.1,1.5c-0.8,1.6-1.5,3.1-2.4,4.9c5.4,0.6,10.2,2.3,15.1,4.7c-3.2,1-6.2,1.9-9.2,2.8c-0.6-1-1.2-1.9-1.8-2.8
	c-0.6-0.9-1.3-1.9-2-2.8c-0.7-0.8-1.6-1.2-2.6-1.3c-4.9-0.5-7.3,2.8-8,6.2c-0.2,1.2-0.2,2.5,0,3.8c0.2,1.3,1.1,2.3,2.4,2.8
	c2.5,1,5,1,7.6,0.4c0.6-0.1,1.2-0.2,1.9-0.3c0.3,0.7,0.5,1.4,0.7,2.1c0.2,0.9,0,1.6-0.8,2.1c-1.9,1.4-4,2.1-6.3,2.6
	c-3.4,0.7-6.5-0.3-9.4-2c-3.1-1.8-5.5-4.4-7.2-7.6c-1.2-2.2-1.5-4.5-1.1-7c0.7-4.4,2.4-8.4,4.3-12.3
	C126.5,265.8,128.6,261.5,130.7,257.2z M141.5,225.8c0.5-0.7,1.1-1.2,1.8-1.8c0.5-0.4,0.9-0.2,1.4,0.3c1.2,1.3,1.7,3.2,1.4,5.3
	c-0.6,0.5-1.3,1.2-2.1,1.1c-1.1-0.2-2.1-0.8-2.6-1.8C141,227.9,140.9,226.8,141.5,225.8z M146.9,232.7c0.5-1.5,1.3-2.7,2.3-3.8
	c0.6,0.5,1.3,1,1.8,1.5c1.1,1.2,2.2,2.4,3.2,3.7c0.4,0.5,0.5,1.3,0.7,2c0.1,0.2,0,0.4-0.1,0.8C152,235.7,149.2,234.6,146.9,232.7z
	 M140.5,286.8c-1.6,0.4-4.1-0.3-4.6-1.3C137.5,284.5,139.9,285.2,140.5,286.8z M176.5,293.4c-0.3,0.7-0.7,1.1-1.4,1.2
	c-1.5,0.3-3,0.3-4.5-0.1c-0.6-0.2-1-0.4-1.3-0.9c-0.4-0.7-0.7-1.3-1.1-2c-0.4-0.6-0.8-1.1-1.3-1.8c-0.2,0.4-0.4,0.5-0.4,0.8
	c-0.6,1.5-1.1,3.1-1.7,4.6c-0.3,0.8-0.1,1.5,0.3,2.2c0.4,0.6,0.7,1.3,1.1,1.9c1.4,2.2,2,4.8,2.6,7.3c0.1,0.2,0,0.5,0,0.8
	c-2.8,2.5-6,4.2-9.7,4.9c-4.8,0.9-9.7,1-14.6,0.8c-4.2-0.2-8.3-0.6-12.3-1.5c-9.1-2-15.7-7.1-19.2-16.1c-0.9-2.4-1.5-4.8-1.7-7.4
	c-0.1-1.6,0.2-3.2,0.7-4.7c0.6-1.6,1.1-3.2,1.9-4.7c0.5-1,1.3-2,2-2.9c1.9-2.2,3.8-4.3,5.7-6.4c0.2-0.2,0.5-0.4,0.8-0.8
	c-0.1,1.2-0.6,2-1,2.9c-1.1,2.5-2.3,4.9-3.3,7.4c-1.2,2.8-1.7,5.9-1.8,8.9c0,0.9,0,1.9,0,2.8c0,1.3,0.2,2.6,0.8,3.8
	c2.2,4.5,5.3,8.3,9.9,10.4c4.2,1.9,8.5,1.9,12.6-0.2c0.8-0.4,1.6-0.9,2.2-1.6c1.6-1.9,3.1-3.7,3.9-6.2c0.6-1.9,1.4-3.8,2.1-5.8
	c2.8-1,5.7-1.9,8.5-2.9c2.7-0.9,5.4-1.3,8.2-1.4c2.6-0.1,5.2,0.2,7.8,0.4c0.6,0,1.3,0.1,2,0.1c1.1-1.6,2.5-3.1,3.3-5.1
	c-0.6-0.1-1-0.2-1.5-0.2c-4.7-0.2-9.4-1-13.9-2.5c-2.7-1-5.3-2.1-8-3.1c-0.7-0.3-1.4-0.5-2.2-0.8c1.4-1.4,2.7-2.6,3.9-4.1
	c1.1-1.4,2-3.1,3-4.6c0.1,0,0.1,0,0.2,0c0,0.3,0.1,0.5,0,0.8c-0.2,2.7,0,5.3,0.8,7.9c1.1,3.3,3.6,4.4,6.7,3.3
	c2.3-0.8,4.1-2.2,5.3-4.4c1.2-2.2,2.2-4.5,2.5-7c0.2-1.8,0.1-3.6,0.1-5.4c-0.2-3.2-0.4-6.3-0.7-9.5c-0.1-0.7-0.2-1.5-0.2-2.3
	c0-0.4,0-0.7,0-1.2c1.1,0.7,1.5,2,3,2.3c-0.1-0.8-0.2-1.5-0.3-2.2c-0.6-3.3-1.6-6.4-2.9-9.5c-0.7-1.6-1.2-3.2-1.9-4.9
	c-0.3,0.1-0.6,0.2-0.7,0.4c-0.7,1.2-1.5,2.3-2.1,3.6c-0.3,0.5-0.3,1.3-0.2,1.8c0.6,1.7,0.6,3.5,0.8,5.3c0.3,2.9,0.6,5.8,0.8,8.8
	c0.2,2.3,0.3,4.5,0.5,6.8c0.1,1.5,0.3,3.1,0.4,4.6c0.1,1.9,0.3,3.7,0.1,5.7c-1.5,1.2-3.2,1.9-5.2,1.9c-1,0-1.7-0.4-2.3-1.2
	c-0.6-0.9-0.9-1.9-0.9-3c-0.1-3.6-0.3-7.3-0.4-10.9c-0.1-3.1,0-6.2-0.2-9.2c-0.4-5.5-0.3-11-0.4-16.5c-0.1-2.4-0.3-4.8-0.4-7.2
	c-0.1-0.9-0.2-1.9,0.2-2.9c0.8,0.8,1.7,1.6,2.4,2.4c3.4,3.6,6.9,7.3,10.3,10.9c1.1,1.2,2.2,2.5,3.3,3.9c1.1,1.3,1.4,2.9,1.6,4.6
	c0.3,3.7,0.5,7.4,0.8,11.1c0.1,2.1,0.3,4.1,0.4,6.2c0.3,5.6,1.1,11.1,1,16.7c0,2.6-0.3,5.2-1.1,7.7c-0.5,1.4-1.3,2.6-2,3.9
	C177.8,290.9,177.1,292.2,176.5,293.4z M183.1,287.4c1.8-2.1,3.8-4,5.8-5.9c1.7-1.6,3.8-2.2,6-2.3c0.9,0,1.9,0.2,2.7,0.6
	c1.1,0.4,2.1,0.9,3.1,1.4c0.3,0.2,0.6,0.5,1,0.8c-0.2,0.4-0.4,0.7-0.6,0.9c-0.6,0.6-1.2,1.2-1.9,1.6c-4.2,2.5-8.3,5-12.8,6.9
	c-2.3,0.9-4.7,1.5-7,2.3c-0.1,0-0.3,0-0.6,0.1c0.3-0.6,0.6-1.2,0.9-1.7C180.8,290.4,181.9,288.8,183.1,287.4z M203.7,259.4
	c-0.1,0.2-0.3,0.4-0.5,0.7c-0.2-0.2-0.4-0.4-0.6-0.6c-2.7-3.3-5.4-6.5-8-9.8c-2.5-3.2-4.8-6.4-7.2-9.6c-1.1-1.5-2.3-2.9-3.6-4.3
	c-0.8-0.9-1.2-1.7-1.2-2.9c0-0.7-0.1-1.5-0.1-2.2c0.1,0,0.2-0.1,0.2-0.1c1.2,1.4,2.5,2.7,3.6,4.1c3.5,4.4,6.9,8.9,10.4,13.3
	c2.2,2.9,4.5,5.7,6.7,8.5C204.5,257.8,204.6,258,203.7,259.4z M208.4,249.9c-0.3-0.3-0.5-0.6-0.7-0.8c-2.6-3.4-5.1-6.9-7.7-10.3
	c-2.2-2.8-4.6-5.5-6.9-8.2c-1.4-1.7-2.8-3.5-4.3-5.2c-1.6-1.8-3.3-3.6-5.1-5.2c-1.3-1.2-2-2.3-2-4.2c0.1-2.5-0.2-5-0.4-7.5
	c0-0.6,0-1.3,0-1.9c0-1.7-0.1-3.4-0.1-5.1c0-2.1,0.1-4.1,0.1-6.2c0-3.3,0-6.6,0-9.9c-0.1-3.8-0.2-7.6-0.3-11.3
	c0-1.2-0.2-2.4-0.3-3.7c0.1,0,0.2-0.1,0.3-0.1c2.7,2.9,5.2,5.9,8,8.7c3.2,3.2,5.7,6.9,8.6,10.4c2.6,3.1,4.5,6.7,6.1,10.5
	c1.5,3.7,3.3,7.4,4.7,11.2c2.2,6,3,12.2,2.9,18.6c0,3.3,0,6.6-0.4,9.9c-0.4,3.1-1,6-2,8.9C208.8,249,208.6,249.4,208.4,249.9z"/>
<path class="st0" d="M150.5,198.3c2.1,1.7,4.4,2.5,6.5,3.9c1.1-1.9,2.1-3.7,3.1-5.6c0.1-0.3,0.1-0.6,0.2-0.9
	c-2.1-1.2-4.2-2.3-6.4-3.5C152.9,194.2,151.7,196.2,150.5,198.3z"/>
<path class="st0" d="M145,206.2c2.9-1.5,5.8-3,8.8-4.4c1.3-0.6,1.5-1.8,1.8-3.1c-3,1.5-5.9,2.9-8.8,4.3c-0.1-0.1-0.1-0.1-0.2-0.2
	c0.2-0.6,0.4-1.2,0.6-1.8c0.3-0.9,0.6-1.8,0.8-2.8c0.3-1.9,0.2-3.7,0-5.6c-0.3-2.8-1.9-4.8-3.7-6.8c-0.8,0.9-0.8,1.9-1,2.9
	c0.3,0.3,0.6,0.7,0.9,1c1.2,1.2,2.1,2.6,2.4,4.3c0.3,1.4,0.4,2.9,0.3,4.3c-0.3,2.8-1.1,5.4-4.1,6.6c-0.1,0-0.2,0.1-0.2,0.1
	c-1.3,0.5-1.8,1.7-2,3.2c0.6-0.3,1.2-0.5,1.7-0.8C143.2,207.2,144.1,206.7,145,206.2z"/>
</svg>
